<svg id="Layer_1" data-name="Layer 1" xmlns="http://www.w3.org/2000/svg" viewBox="0 0 108.7 99.9"><defs><style>.cls-1{fill:#333232;}.cls-2{fill:#dc3d2b;}.cls-3{fill:#fcfcfc;}</style></defs><title>botao-som</title><g id="botao-som"><path class="cls-1" d="M137.1,948.4c-30.4,0-54.1-21.7-54.3-49.7-.2-27.4,24.5-50.3,54.2-50.2s54.2,22.6,54.5,50.1C191.8,925.9,167.2,948.4,137.1,948.4Z" transform="translate(-82.8 -848.5)"/><path class="cls-2" d="M98.3,899.1c0,10.1,4.8,20.4,12.9,26.3,6,4.4,13.8,5.7,22.1,5.7,19.3,0,34.9-14.3,34.9-31.9s-15.6-31.9-34.9-31.9S98.3,881.4,98.3,899.1Z" transform="translate(-82.8 -848.5)"/><path class="cls-3" d="M159.4,877.3c-29.9-10.8-62.1,9.9-50.6,46.4-15.1-15.3-15.3-34.4-.6-47.8C123.2,862.2,144,862.7,159.4,877.3Z" transform="translate(-82.8 -848.5)"/><path class="cls-1" d="M137.45,871a3.81,3.81,0,0,0-1.78.88,17.59,17.59,0,0,0-2.58,2.67c-4.59,5.49-14.28,17-14.34,17s-.94.24-2,.47c-8.87,2-9.63,2.12-9.82,2.23-.67.39-1,1.68-.91,3.76.14,3.88,1.29,8.82,2.48,10.61a1.91,1.91,0,0,0,1.13.93c.21.06,2.07,0,9.36-.35.62,0,1.15,0,1.19,0s3.12,2,6.84,4.51c6.29,4.19,6.78,4.52,7.19,4.92a3.82,3.82,0,0,0,2.85,1.27,3.76,3.76,0,0,0,2.85-1.33c2.07-2.08,3.66-6.4,4.68-12.73a74.53,74.53,0,0,0,.83-15.19c-.24-6.23-1.15-11.73-2.48-15.07-1.26-3.16-2.8-4.68-4.75-4.66A4.94,4.94,0,0,0,137.45,871Z" transform="translate(-82.8 -848.5)"/><path class="cls-1" d="M152,875.43l.53.68c2.78,3.51,4.79,8.7,5.55,14.36a36.58,36.58,0,0,1,.35,5.44,37.13,37.13,0,0,1-.35,5.44,29.86,29.86,0,0,1-5.72,14.6,6.82,6.82,0,0,0-.45.59,1,1,0,0,0,.31-.14c3.47-1.92,6.27-6,7.82-11.5a34.93,34.93,0,0,0,1-12.28c-.65-7-3.38-13-7.26-16.12a10.33,10.33,0,0,0-1.88-1.19S152,875.37,152,875.43Z" transform="translate(-82.8 -848.5)"/><path class="cls-1" d="M146.5,878.18s.18.24.4.51a25.3,25.3,0,0,1,4.66,11,34.6,34.6,0,0,1-.85,15.9,22.9,22.9,0,0,1-4,7.76.79.79,0,0,0-.18.27,8.21,8.21,0,0,0,1.78-1.16,16.6,16.6,0,0,0,1.7-1.75,21.37,21.37,0,0,0,4-9.39,28.62,28.62,0,0,0-1.93-17,14.15,14.15,0,0,0-4.59-5.68A4.5,4.5,0,0,0,146.5,878.18Z" transform="translate(-82.8 -848.5)"/></g></svg>