<svg xmlns="http://www.w3.org/2000/svg" viewBox="0 0 171 179"><defs><style>.cls-1{fill:#ffbb24;}.cls-2{fill:#404040;}.cls-3{fill:#848484;}.cls-4{fill:#31e105;}.cls-5{fill:#010100;}.cls-6{fill:#010201;}.cls-7{fill:#010101;}.cls-8{fill:#020302;}.cls-9{fill:#fefefe;}</style></defs><title>certo</title><g id="Layer_6" data-name="Layer 6"><rect class="cls-1" x="2" y="5" width="169" height="174"/><rect class="cls-1" y="52" width="5" height="5"/><rect class="cls-1" x="115" y="174" width="5" height="5"/><rect class="cls-1" x="95" width="5" height="5"/></g><g id="Layer_2" data-name="Layer 2"><path d="M16.24,152.32V42.4c1-.65,2-.32,3-.36,1.57-.06,1.62-.07,1.64-1.61,0-.72,0-1.44,0-2.16A1.18,1.18,0,0,1,22.21,37c.88,0,1.76,0,2.64,0s1.08-.37,1.09-1.11,0-1.75,0-2.63A1.18,1.18,0,0,1,27.24,32c.88,0,1.76,0,2.63,0S31,31.6,31,30.85s0-1.76,0-2.64a1.18,1.18,0,0,1,1.26-1.28c.88,0,1.76,0,2.63,0s1.15-.36,1.13-1.16,0-1.44,0-2.16a1.92,1.92,0,0,1,.37-1.35H161.2c.65,1,.32,2,.36,3,.07,1.56.09,1.62,1.63,1.63.56,0,1.12,0,1.68,0,1.46.05,1.7.3,1.74,1.8,0,.72,0,1.44,0,2.16S167,32,167.7,31.94s1.28,0,1.92,0c1.79,0,2,.23,2,2,0,.63,0,1.27,0,1.91,0,.83.37,1.15,1.16,1.13s1.44,0,2.16,0c1.41.06,1.64.31,1.73,1.71.07,1-.24,2.07.26,3,.76.57,1.63.27,2.45.3,1.81.06,1.83,0,1.83,1.79q0,53.64,0,107.27a4.83,4.83,0,0,1,0,1.2c-.85.66-1.84.35-2.78.38-1.61.06-1.65.07-1.7,1.71,0,1.92-.25,2.12-2.16,2.14-3.1,0-2.86-.29-2.88,2.83,0,2-.24,2.2-2.21,2.21-3.09,0-2.8-.17-2.83,2.9,0,1.9-.23,2.12-2.14,2.14-3.09,0-2.87-.26-2.9,2.82,0,2.05-.2,2.22-2.44,2.22H90.44c-.92,0-1.84,0-2.76,0a.87.87,0,0,0-1,1c0,.88,0,1.76,0,2.64s-.49,1.43-1.41,1.39c-1.34,0-2.72.33-4-.31A2,2,0,0,1,80.9,175c0-2.44,0-4.88,0-7.32,0-1.47.32-1.75,1.75-1.82.52,0,1,0,1.56,0H153.7c2.31,0,2.31,0,2.31-2.29,0-2.67.07-2.73,2.77-2.75.24,0,.48,0,.72,0,1,.07,1.37-.41,1.32-1.36,0-.52,0-1,0-1.56.05-1.56.31-1.82,1.82-1.87.68,0,1.36,0,2,0s1.17-.36,1.17-1.16,0-1.36,0-2c.06-1.51.34-1.78,1.88-1.83.68,0,1.36,0,2,0s1.12-.32,1.1-1.08c0-.12,0-.24,0-.36.09-2.62.09-2.62,2.76-2.63,2.28,0,2.28,0,2.28-2.32V50.14c0-2.54,0-2.54-2.57-2.55-.28,0-.56,0-.84,0-1.26-.07-1.54-.34-1.61-1.58,0-.8,0-1.6,0-2.4a.92.92,0,0,0-1-1c-.8,0-1.6,0-2.4,0-1.24-.08-1.51-.36-1.58-1.62,0-.64,0-1.28,0-1.92,0-.85-.34-1.25-1.21-1.24s-1.6,0-2.39,0a1.32,1.32,0,0,1-1.42-1.43c0-.68,0-1.36,0-2,0-1.44-.13-1.53-1.61-1.55h-1.68A1.31,1.31,0,0,1,156,31.24c0-.84,0-1.68,0-2.52,0-.69-.31-1-1-1H43.87c-2.28,0-2.28,0-2.28,2.32,0,2.63-.09,2.71-2.68,2.72-2.36,0-2.36,0-2.36,2.36v.24c0,2.27-.17,2.43-2.47,2.44s-2.32,0-2.33,2.28c0,.16,0,.32,0,.48,0,1.74-.29,2-2,2-2.94.07-2.94.07-3,3.05,0,1.69-.28,1.95-1.94,2-.68,0-1.36,0-2,0s-1,.3-1,1c0,.4,0,.8,0,1.2v94.79c0,2.3,0,2.3,2.3,2.3h.48c2,0,2.22.2,2.26,2.29,0,1.74.06,1.78,1.86,1.79,3.15,0,3.15,0,3.18,3.18,0,1.81.05,1.85,1.91,1.86,2.87,0,2.87,0,2.89,2.86,0,.28,0,.56,0,.84,0,.75.33,1.09,1.08,1.1s1.68,0,2.52,0a1.29,1.29,0,0,1,1.41,1.42c0,.68,0,1.36,0,2,0,1.43.13,1.55,1.6,1.56,3.56,0,7.12,0,10.68,0,2.78,0,2.84.06,2.84,2.8q0,3,0,6a2.79,2.79,0,0,1-.29,1.63c-1.56.76-3.19.44-4.8.24-.55-.07-.63-.66-.67-1.15a19.22,19.22,0,0,1,0-2.4c0-1-.41-1.33-1.37-1.32-3.64,0-7.27,0-10.91,0-2.51,0-2.6-.1-2.61-2.66,0-2.38,0-2.38-2.37-2.38h-.24c-2.27,0-2.42-.16-2.43-2.48,0-2.55,0-2.55-2.55-2.56h-.72c-1.45-.06-1.71-.32-1.76-1.8,0-.64,0-1.28,0-1.92,0-1-.46-1.35-1.4-1.32-.72,0-1.44,0-2.16,0-1,0-1.4-.51-1.47-1.48-.16-2.35-.18-2.34-2.6-2.36A3,3,0,0,1,16.24,152.32Z" transform="translate(-12 -15)"/><path class="cls-2" d="M176.33,42.15a40.2,40.2,0,0,0,5,0V152.32l-.25,0q0-26.76,0-53.51,0-27.48,0-54.95c0-1.07-.22-1.44-1.36-1.42S177.43,42.81,176.33,42.15Z" transform="translate(-12 -15)"/><path class="cls-3" d="M66.16,191.44c0-1.4,0-2.79,0-4.19,0-.7-.23-.89-.89-.86-1,.05-2.08,0-3.11,0s-1.1-.3-1.07-1.11c0-1.31,0-2.63,0-3.95a.26.26,0,0,1,.36.09,7,7,0,0,1,.23,2.8c0,1.5.06,1.54,1.51,1.56a22.41,22.41,0,0,1,2.72.06,1.49,1.49,0,0,1,.4.15.79.79,0,0,1,.26.31,14.67,14.67,0,0,1,.14,3.44c0,.73.29,1.09,1.06,1.08,3.54,0,3,.32,3-2.79A6.14,6.14,0,0,1,71,186.4a1,1,0,0,1,.25-.36,1.42,1.42,0,0,1,.4-.17c1.55,0,3.11-.4,4.61.28-1.19.58-2.46.2-3.69.22-.9,0-1.17.25-1.12,1.14.08,1.3,0,2.62,0,3.93Z" transform="translate(-12 -15)"/><path class="cls-4" d="M61.32,181.33h-.11l-.09,0h0a9,9,0,0,1-.15-3c0-1.64-.06-1.65-1.67-1.71-1,0-2.09.28-3-.34l0,0c0-3-.06-6,0-9,0-.89-.23-1.14-1.14-1.13-4.27.05-8.56,0-12.83,0-.86,0-1.12-.25-1.07-1.08.07-1,0-2.08,0-3.12,0-.63-.22-.85-.84-.83-1,0-2-.06-3,0s-1.31-.32-1.23-1.29,0-1.84,0-2.76c0-.67-.22-.93-.9-.9-1,0-2.08,0-3.11,0-.77.05-1-.25-.94-1,.05-1,0-2.08,0-3.12,0-.72-.2-1-.95-1-1,.05-2.08,0-3.12,0-.71,0-1-.16-1-.93s0-1.52,0-2.28-.21-.82-.82-.8c-1.16,0-2.32,0-3.48,0-.57,0-.82-.17-.75-.75,0-.24,0-.48,0-.72q0-48.54,0-97.08c0-1.27.36-1.54,1.53-1.48s2.61.52,3.34-.21.16-2.14.19-3.25c.05-1.71-.23-1.53,1.52-1.55a21.33,21.33,0,0,1,2.4,0c1,.09,1.16-.33,1.11-1.18s0-1.92,0-2.88c0-.67.18-.93.88-.9,1.08,0,2.16,0,3.24,0,.63,0,.84-.22.83-.84,0-1.12,0-2.24,0-3.36,0-.62.19-.84.82-.82,1.12,0,2.25,0,3.36,0,.7,0,.91-.22.88-.89,0-1.08,0-2.17,0-3.24-.05-.76.24-1,1-.92.2,0,.4,0,.6,0h112c1.68,0,1.47-.24,1.52,1.56,0,1.11-.47,2.54.19,3.25s2.13.28,3.22.19c1.32-.1,1.65.4,1.52,1.6-.09.87,0,1.76,0,2.64,0,.64.22.83.83.81,1.12,0,2.24,0,3.36,0,.62,0,.86.17.83.81,0,1.08,0,2.17,0,3.24,0,.67.18.93.87.9,1.12,0,2.24,0,3.36,0,.62,0,.85.19.83.82,0,1.12,0,2.24,0,3.36,0,.69.22.91.89.88,1.08,0,2.16,0,3.24,0,.67,0,1,.22.89.91a4,4,0,0,0,0,.6q0,48.54,0,97.08c0,1.15-.26,1.57-1.43,1.43-.83-.1-1.69,0-2.52,0s-1.18.29-1.09,1.15c.06.67,0,1.36,0,2s-.19.85-.82.83c-1.16,0-2.32,0-3.48,0-.57,0-.77.19-.76.77,0,1.12,0,2.24,0,3.36,0,.75-.24,1-1,.93-1.08,0-2.16,0-3.24,0-.63,0-.85.22-.83.84,0,1,0,2.08,0,3.12.05.82-.27,1-1,1-.92-.06-1.84,0-2.76,0s-1.25.17-1.17,1.12,0,1.84,0,2.75-.33,1.28-1.22,1.16a4.33,4.33,0,0,0-.72,0q-35.88,0-71.76,0c-1.09,0-1.41.25-1.38,1.36.08,2.92,0,5.84,0,8.76l0,0c-1,.64-2,.32-3,.36-1.63.06-1.62,0-1.68,1.68,0,1,.28,2.08-.36,3l0,0c-.58.47-1.27.33-1.93.37a8,8,0,0,0-2.44.17c-.48.33-.32.84-.36,1.29-.09,1,.24,2.05-.27,3v0a8,8,0,0,1-4.9,0v0c-.51-1-.18-2-.27-3,0-.46.12-1-.38-1.29a11.06,11.06,0,0,0-2.81-.15A2.16,2.16,0,0,1,61.32,181.33Z" transform="translate(-12 -15)"/><path class="cls-5" d="M76.24,181.38c0-1.35.06-2.7,0-4,0-.76.16-1.07,1-1,1.35.07,2.71,0,4.06,0,0,1.35-.07,2.71,0,4.05,0,.83-.26,1-1,1C78.94,181.3,77.59,181.36,76.24,181.38Z" transform="translate(-12 -15)"/><path class="cls-6" d="M71.44,181.44a31,31,0,0,1,4.82-.08l0,4.79-4.79-.05A19.12,19.12,0,0,1,71.44,181.44Z" transform="translate(-12 -15)"/><path class="cls-7" d="M56.3,176.33c1.36,0,2.71,0,4.07,0,.65,0,1,.14.91.86a38.9,38.9,0,0,1-.12,4.18c-1.36,0-2.72,0-4.08,0-.63,0-.83-.18-.81-.81C56.31,179.13,56.29,177.73,56.3,176.33Z" transform="translate(-12 -15)"/><path class="cls-8" d="M66.35,186.22h4.9c0,1.39-.06,2.79,0,4.18,0,.61-.17.84-.81.82-1.07-.05-2.15-.05-3.22,0-.64,0-.82-.21-.81-.82C66.41,189,66.36,187.61,66.35,186.22Z" transform="translate(-12 -15)"/><path class="cls-6" d="M61.32,181.33a39.11,39.11,0,0,1,4.84.11,19.12,19.12,0,0,1,0,4.66c-1.36,0-2.72,0-4.07.07-.59,0-.75-.2-.74-.76C61.37,184.05,61.33,182.69,61.32,181.33Z" transform="translate(-12 -15)"/><path class="cls-8" d="M66.16,186.1v-4.66c.35,1.57,0,3.18.18,4.76Z" transform="translate(-12 -15)"/><path class="cls-8" d="M71.44,181.44v4.66l-.18.1C71.41,184.62,71.09,183,71.44,181.44Z" transform="translate(-12 -15)"/><path d="M113.73,147.28q-18.12,0-36.23,0c-1,0-1.39-.26-1.22-1.25,0-.2,0-.41,0-.6.19-1-.31-1.26-1.27-1.22-1.87.07-3.76,0-5.63,0-.86,0-1.07-.27-1.07-1.09q0-30.42,0-60.82c0-1,.32-1.12,1.16-1.1,2,.06,3.92,0,5.88,0,.72,0,1.07-.16.94-.93s.2-1.18,1-1.05,1.07-.33,1-1.11c0-1.52.07-3,0-4.55-.08-1.17.37-1.47,1.43-1.36.79.07,1.6,0,2.39,0s1.18-.2,1.16-1.12c-.06-2.92,0-5.84,0-8.76,0-.9.24-1.27,1.14-1.12h.12c1.23-.09,2.81.52,3.57-.26s.17-2.28.19-3.48c0-1.8,0-3.6,0-5.39,0-.76.23-1,.95-.93,1.12,0,2.24,0,3.36,0,.57,0,.78-.17.76-.75,0-1.12,0-2.24,0-3.36,0-.63.11-.94.84-.92q2.64.08,5.28,0c.72,0,.89.26.86.91,0,1.12,0,2.24,0,3.36,0,.56.16.78.75.76,1.11,0,2.24,0,3.35,0,.64,0,.93.11.93.84,0,7.12,0,14.24,0,21.36,0,.62-.19.85-.82.82-1.08,0-2.16,0-3.24,0-.71,0-1,.15-1,.92a15.39,15.39,0,0,1,0,2.88c-.14,1.15.36,1.28,1.35,1.28,5.6,0,11.19,0,16.79,0,10.52,0,21,0,31.55,0,1.07,0,1.39.27,1.32,1.33-.09,1.51,0,3,0,4.56,0,.86.18,1.17,1.12,1.15,3.27-.06,6.55,0,9.83,0,.82,0,1.09.2,1.09,1.06q0,25.38,0,50.75c0,.93-.32,1.13-1.18,1.12-3.23,0-6.47,0-9.71,0-.91,0-1.18.27-1.15,1.16.06,1.92,0,3.84,0,5.76,0,.94-.25,1.19-1.2,1.19Q131.91,147.26,113.73,147.28Z" transform="translate(-12 -15)"/><path d="M63.28,113.32c0,10.88,0,21.76,0,32.64,0,1-.16,1.36-1.29,1.35q-13.26-.08-26.52,0c-1,0-1.24-.25-1.24-1.24q0-32.76,0-65.52c0-1,.29-1.24,1.27-1.24q13.26.06,26.51,0c1,0,1.27.26,1.27,1.26C63.27,91.48,63.28,102.4,63.28,113.32Z" transform="translate(-12 -15)"/><path class="cls-9" d="M113.77,145.32q-17.16,0-34.31,0c-1,0-1.38-.27-1.23-1.25,0-.31,0-.64,0-1,.09-.69-.2-.88-.88-.86-2,0-3.92-.05-5.87,0-1,0-1.25-.2-1.25-1.22q.06-23.7,0-47.39c0-3.16,0-6.32,0-9.48,0-.77.18-1,1-1,2,.06,4,0,6,0,.73,0,1.16-.1,1-.94s.21-1.18,1-1,1-.2,1-1c-.06-2,0-4,0-6,0-.81.16-1.17,1-1.09s1.69,0,2.52,0c1.15.12,1.6-.17,1.53-1.46-.12-2.52,0-5,0-7.56,0-.8.23-1.09,1-1h.12c1.27-.07,3,.53,3.68-.24s.17-2.36.18-3.59c0-1.8,0-3.6,0-5.4,0-.62.16-.85.81-.82,1.15,0,2.32,0,3.47,0,.58,0,.77-.15.74-.73,0-1.08,0-2.16,0-3.24,0-.75.13-1,1-1,2.13,0,2.13,0,2.13,2.13,0,2.85,0,2.85,2.81,2.85,2.15,0,2.15,0,2.15,2.21,0,5.24,0,10.48,0,15.72,0,.89-.21,1.16-1.12,1.14-1.26,0-3-.57-3.66.23s-.19,2.35-.2,3.59c0,1.44,0,2.88,0,4.32,0,.69.21.85.87.84,3.36,0,6.72,0,10.08,0q19.44,0,38.87,0c.91,0,1.24.18,1.18,1.15-.09,1.64,0,3.28,0,4.92,0,.75.2.94.93.93,3.36,0,6.72,0,10.08,0,.86,0,1,.24,1,1.06q0,23.46,0,46.91c0,1-.33,1.16-1.22,1.15-3.24-.05-6.48,0-9.72,0-.92,0-1.14.26-1.11,1.14.07,1.84,0,3.68,0,5.52,0,1-.2,1.39-1.34,1.39C136.57,145.3,125.17,145.32,113.77,145.32Z" transform="translate(-12 -15)"/><path class="cls-9" d="M61.28,113.32c0,10.24,0,20.47,0,30.71,0,1-.23,1.33-1.31,1.32-7.51-.06-15,0-22.55,0-1,0-1.23-.28-1.23-1.25q0-30.84,0-61.66c0-1,.24-1.18,1.18-1.17q11.39.06,22.79,0c.9,0,1.12.22,1.11,1.11Q61.26,97.85,61.28,113.32Z" transform="translate(-12 -15)"/></g></svg>