<svg xmlns="http://www.w3.org/2000/svg" viewBox="0 0 169 174.07"><defs><style>.cls-1{fill:#ffbb24;}.cls-2{fill:#fe0000;}.cls-3{fill:#fefefe;}</style></defs><title>errado</title><g id="Layer_6" data-name="Layer 6"><rect class="cls-1" y="0.07" width="169" height="174"/><rect class="cls-1" x="113" y="169.07" width="5" height="5"/></g><g id="Layer_3" data-name="Layer 3"><path d="M182.61,149.93,182.2,39.78c-.95-.65-2-.32-3-.36-1.56-.05-1.62-.07-1.64-1.61,0-.68,0-1.36,0-2,0-1-.49-1.37-1.42-1.38-.75,0-1.51,0-2.27,0-1,.06-1.41-.3-1.35-1.3a19.13,19.13,0,0,0,0-2.27,1.14,1.14,0,0,0-1.21-1.2,21,21,0,0,0-2.51,0c-1,.06-1.37-.38-1.31-1.34a19.46,19.46,0,0,0,0-2.16c-.06-1.21-.31-1.46-1.51-1.52-.79-.05-1.59,0-2.39,0s-1.15-.36-1.13-1.16,0-1.43,0-2.15a1.92,1.92,0,0,0-.37-1.35l-125.1.46c-.65.95-.32,2-.35,3-.06,1.56-.08,1.62-1.62,1.64-.68,0-1.36,0-2,0-.95,0-1.37.49-1.38,1.42,0,.75-.05,1.51,0,2.27.06,1-.3,1.4-1.3,1.35-.79,0-1.59,0-2.39,0a1.21,1.21,0,0,0-1.33,1.34c0,.75,0,1.51,0,2.27s-.37,1.21-1.22,1.18-1.51,0-2.27,0c-1.21.07-1.47.32-1.53,1.51,0,.8,0,1.6,0,2.39S21.07,40,20.27,40s-1.44,0-2.16,0a1.93,1.93,0,0,0-1.35.38l.41,110.15c.95.65,2,.32,3,.36,1.53.06,1.6.09,1.63,1.64,0,.28,0,.56,0,.84.08,1.26.34,1.53,1.6,1.59.76,0,1.52,0,2.28,0s1.15.37,1.15,1.16,0,1.68,0,2.52A1.25,1.25,0,0,0,28.3,160l.84,0c3,0,2.8-.29,2.82,2.74,0,.24,0,.48,0,.72.09,1.2.35,1.47,1.53,1.54.8.05,1.6,0,2.4,0a1,1,0,0,1,1.1,1.1c0,.72,0,1.44,0,2.16.06,1.45.33,1.71,1.82,1.75.88,0,1.76,0,2.64,0l8.16,0c2.26,0,2.26,0,2.28,2.2q0,.6,0,1.2c0,.86.45,1.39,1.33,1.35,1.37-.05,2.79.36,4.12-.34a2.32,2.32,0,0,0,.32-1.5c0-2.36,0-4.72,0-7.08,0-1.59-.31-1.88-1.93-1.88-3.72,0-7.44,0-11.16,0-1.7,0-1.78-.07-1.8-1.73,0-.64,0-1.28,0-1.92A1.26,1.26,0,0,0,41.43,159c-.88,0-1.76,0-2.64,0a.91.91,0,0,1-1-1c0-.88,0-1.76,0-2.64A1.26,1.26,0,0,0,36.35,154c-.52,0-1,0-1.56,0-1.81,0-1.84,0-1.86-1.9,0-.56,0-1.12,0-1.68a1.29,1.29,0,0,0-1.41-1.42c-.8,0-1.6,0-2.4,0s-1.25-.28-1.2-1.11c.15-3-.69-2.7-3.06-2.71H24c-.8,0-1.19-.33-1.17-1.14,0-.4,0-.8,0-1.2q-.18-47.22-.35-94.43c0-2.28,0-2.28,2.29-2.3,2.69,0,2.74-.07,2.74-2.76,0-2.28,0-2.28,2.31-2.3,2.62,0,2.71-.11,2.71-2.69,0-2.34,0-2.34,2.36-2.36l1,0c1,0,1.44-.54,1.45-1.51,0-.64,0-1.28,0-1.92,0-1.48.12-1.57,1.55-1.61.68,0,1.36,0,2,0a1.28,1.28,0,0,0,1.42-1.41c0-.72,0-1.44,0-2.16,0-.87.39-1.24,1.24-1.21.32,0,.64,0,1,0l109.84-.4h.48c1.63,0,1.7.08,1.72,1.67,0,3.1,0,3.1,3.11,3.12,1.63,0,1.71.06,1.71,1.67,0,3.49,0,3.36,3.38,3.35,1.58,0,1.66.1,1.69,1.72,0,.64,0,1.28,0,1.92a1.26,1.26,0,0,0,1.35,1.36c.84,0,1.68,0,2.52,0s1.16.37,1.15,1.17,0,1.36,0,2c.06,1.52.32,1.77,1.88,1.81.68,0,1.36,0,2,0s1.12.31,1.11,1.07c0,.36,0,.72,0,1.08q.18,47.4.35,94.79c0,2.11,0,2.11-2.1,2.13h-.48c-2.26,0-2.38.13-2.45,2.35,0,1.37-.14,1.46-1.54,1.5-.72,0-1.44,0-2.16,0a1.24,1.24,0,0,0-1.29,1.29c-.06.88,0,1.76,0,2.64s-.36,1.1-1.1,1.08H165c-3.19,0-3.19,0-3.2,3.16,0,.2,0,.4,0,.6.06.89-.32,1.32-1.25,1.3q-1.08,0-2.16,0a1.26,1.26,0,0,0-1.35,1.36c0,.76,0,1.52,0,2.28,0,1.22-.16,1.33-1.42,1.38-.44,0-.88,0-1.32,0l-69.14.26c-3,0-3,0-3,3,0,2,0,3.92,0,5.88a2.62,2.62,0,0,0,.33,1.62c1.54.68,3.13.38,4.7.2.56-.06.69-.61.74-1.1.08-.8,0-1.6,0-2.4s.36-1.16,1.16-1.14c.44,0,.88,0,1.32,0L160,169.6c2.93,0,2.94,0,2.94-2.93,0-.32,0-.64,0-1,0-.81.37-1.16,1.16-1.16s1.36,0,2,0c1.53-.05,1.78-.31,1.82-1.87,0-.52,0-1,0-1.56,0-1.48.1-1.57,1.54-1.61.64,0,1.28,0,1.92,0,1.19-.08,1.47-.36,1.55-1.53.05-.79,0-1.6,0-2.39s.35-1.09,1.1-1.1,1.6,0,2.4,0c1,0,1.49-.46,1.5-1.46,0-.08,0-.16,0-.24,0-2.45-.18-2.36,2.47-2.39A3.18,3.18,0,0,0,182.61,149.93Z" transform="translate(-14 -19.93)"/><path d="M67.46,184.44c0,1.68,0,3.36,0,5l5,0v-5A7.22,7.22,0,0,0,67.46,184.44Z" transform="translate(-14 -19.93)"/><path class="cls-2" d="M67.46,184.44l5.08,0,0,0c.64-.95.32-2,.35-3,0-1.63,0-1.62,1.67-1.69,1,0,2.08.28,3-.37l0,0c.64-.94.32-2,.35-3,0-1.63,0-1.62,1.68-1.69,1,0,2.08.28,3-.37l0,0c0-3,0-5.92-.06-8.88,0-1,.25-1.24,1.24-1.24q36.07-.09,72.16-.22c1.2,0,1.73-.24,1.55-1.53-.11-.87,0-1.77,0-2.64s.24-.95,1-.92c1,.05,2.08,0,3.12,0,.57,0,.77-.17.75-.75,0-1.08,0-2.16,0-3.24,0-.81.15-1.15,1-1.08,1,.07,2.08,0,3.12,0,.77.05,1-.24.92-.95-.06-1.12,0-2.24,0-3.36,0-.57.16-.78.74-.76,1.08,0,2.16-.05,3.24,0,.81.05,1.18-.15,1.08-1-.08-.67,0-1.36,0-2s.2-.82.82-.8c1.16,0,2.32,0,3.48,0,.56,0,.82-.16.75-.75a5.74,5.74,0,0,1,0-.72q-.18-48.48-.32-97c0-1.28-.38-1.57-1.53-1.45-.91.1-1.84,0-2.76,0-.65,0-.83-.19-.81-.81,0-1.12,0-2.25,0-3.36,0-.67-.16-.93-.86-.89-1,.06-2.09,0-3.12.05s-1.15-.29-1.1-1.14c.07-1,0-2.08,0-3.12,0-.64-.19-.83-.82-.81-1.12,0-2.24,0-3.36,0-.66,0-.93-.15-.89-.85.05-1.08,0-2.17,0-3.24.05-.83-.28-1-1-1-1,.06-2.08,0-3.12,0-.52,0-.7-.16-.69-.68,0-1.08,0-2.16,0-3.24,0-.66-.15-1-.86-.88a4,4,0,0,1-.6,0q-56.06.21-112.13.38c-1.25,0-1.59.35-1.45,1.52.1.83,0,1.68,0,2.52,0,.63-.17.84-.81.82-1,0-2.08.05-3.12,0-.86-.06-1.23.15-1.14,1.1s0,2.08,0,3.12c0,.7-.23.89-.89.86-1-.05-2.08,0-3.12,0-.62,0-.85.17-.82.81,0,1-.05,2.09,0,3.12s-.33,1.21-1.21,1.15-2,0-3,0c-.71,0-.89.22-.86.89.05,1.12,0,2.24,0,3.36,0,.62-.15.85-.8.82-1,0-2.08.07-3.11,0s-1.27.33-1.13,1.22a1.92,1.92,0,0,1,0,.24q.18,48.47.33,97c0,1.23.3,1.62,1.5,1.47.91-.11,1.84,0,2.76,0,.61,0,.88.14.83.79s.05,1.37,0,2c-.09.88.27,1.08,1.08,1,1.08-.07,2.17,0,3.24,0,.58,0,.77.18.75.75,0,1.12,0,2.24,0,3.36,0,.71.15,1,.92,1,1-.07,2,0,3,0,.78-.06.95.25.92.95,0,1.12,0,2.24,0,3.36,0,.58.18.77.75.75,1.12,0,2.24,0,3.36,0,.71,0,1,.13,1,.91-.06,1.08,0,2.16,0,3.24,0,.78.25.92,1,.91,4.28,0,8.56,0,12.85-.08.89,0,1.14.21,1.13,1.11-.05,3,0,6,0,9h0c.94.63,2,.31,3,.34,1.63.06,1.62,0,1.69,1.68,0,1-.28,2.08.37,3l0,0c.94.63,2,.31,3,.35,1.63,0,1.62,0,1.69,1.67,0,1-.28,2.08.37,3Z" transform="translate(-14 -19.93)"/><path d="M82.59,174.3c-1.44,0-2.89,0-4.32,0-.58,0-.77.18-.75.75,0,1.44,0,2.88,0,4.32,1.43,0,2.85,0,4.27,0,.63,0,.81-.17.79-.79C82.55,177.15,82.58,175.73,82.59,174.3Z" transform="translate(-14 -19.93)"/><path d="M77.56,179.36c-1.44,0-2.88,0-4.32,0-.57,0-.76.18-.75.75,0,1.44,0,2.88,0,4.32,1.42,0,2.85-.06,4.27,0,.62,0,.8-.17.78-.79C77.53,182.21,77.56,180.78,77.56,179.36Z" transform="translate(-14 -19.93)"/><path d="M62.42,179.44c0-1.44,0-2.88,0-4.32,0-.58-.18-.76-.75-.75-1.44,0-2.88,0-4.32,0,0,1.42,0,2.84,0,4.26,0,.63.17.81.79.79C59.57,179.4,61,179.43,62.42,179.44Z" transform="translate(-14 -19.93)"/><path d="M67.48,184.46c0-1.44,0-2.88,0-4.32,0-.57-.18-.76-.75-.75-1.44,0-2.88,0-4.32,0,0,1.42.05,2.84,0,4.26,0,.63.17.81.79.79C64.63,184.42,66.06,184.46,67.48,184.46Z" transform="translate(-14 -19.93)"/><path d="M83.58,44.34q18-.08,36-.15c1,0,1.56.1,1.34,1.25-.19.93.19,1.23,1.15,1.18,1.84-.09,3.68,0,5.52-.06.74,0,1,.14,1,1q.07,30.59.22,61.19c0,.79-.21,1-1,1-1.87,0-3.76,0-5.63,0-.82,0-1.23.17-1.06,1,.24,1.19-.29,1.58-1.41,1.39-.78-.14-1,.18-1,1,.07,1.51,0,3,.06,4.55,0,.9-.15,1.31-1.15,1.22s-2,0-3,0c-.77,0-.93.23-.92,1,0,2.8,0,5.6.06,8.4,0,.77-.18,1.06-1,1-1-.07-2,.06-3,0s-1.1.31-1.08,1.16c.06,2.71,0,5.44.07,8.15,0,.86-.23,1.11-1.07,1.06-1-.07-2.08,0-3.12,0-.66,0-.92.16-.88.86.06,1.12,0,2.24,0,3.36,0,.58-.09.87-.77.85-1.76,0-3.52,0-5.28,0-.52,0-.7-.17-.68-.69,0-1.12,0-2.24,0-3.36,0-.76-.16-1.07-1-1-1.08.07-2.16,0-3.24,0-.71,0-.86-.24-.86-.89q0-10.44-.07-20.88c0-.62.16-.84.8-.82,1.08,0,2.16,0,3.24,0,.75,0,1.08-.14,1-1-.1-1.23.38-2.85-.24-3.6s-2.32-.23-3.54-.23q-22.8.06-45.6.19c-1,0-1.39-.19-1.33-1.29.11-1.71,0-3.44,0-5.16,0-.88-.28-1-1.09-1-3.44.06-6.88,0-10.32.08-.9,0-1.12-.22-1.12-1.12q-.06-25.43-.2-50.87c0-1,.32-1.1,1.16-1.09,3.44,0,6.88,0,10.32,0,.85,0,1.07-.24,1-1.07-.07-1.76,0-3.53-.07-5.28-.06-1,.38-1.13,1.24-1.13Q65.4,44.43,83.58,44.34Z" transform="translate(-14 -19.93)"/><path d="M134.22,78.05c0-10.88-.06-21.76-.15-32.63,0-1.1.31-1.3,1.32-1.3q13.14,0,26.28-.09c1,0,1.25.21,1.26,1.23q.06,32.74.24,65.5c0,1-.29,1.23-1.26,1.23q-13.2,0-26.39.1c-.93,0-1.2-.21-1.2-1.17C134.32,100,134.26,89,134.22,78.05Z" transform="translate(-14 -19.93)"/><path class="cls-3" d="M83.53,46.26c11.44,0,22.88-.07,34.32-.15,1,0,1.31.26,1.13,1.17-.2,1.09.26,1.32,1.29,1.27,1.79-.1,3.6,0,5.4-.07.87,0,1,.24,1,1.06q0,17.34.1,34.68c0,7.48,0,15,.11,22.44,0,1-.28,1.17-1.18,1.14-1.84-.06-3.68,0-5.52,0-.88,0-1.14.26-1,1.07.18,1-.11,1.59-1.27,1.37-.71-.14-.64.34-.64.8,0,1.84,0,3.68,0,5.52.06,1-.31,1.19-1.19,1.14-1-.07-2.09.08-3.12,0s-1.28.33-1.25,1.32c.08,2.43,0,4.88.07,7.32,0,.73-.11,1.15-1,1a1.92,1.92,0,0,0-.24,0c-1.26.07-3-.52-3.67.25s-.18,2.35-.18,3.58c0,1.84,0,3.68,0,5.52,0,.74-.12,1.07-.95,1-1.07-.08-2.16,0-3.24,0-.65,0-.91.13-.87.84.06,1.11,0,2.24,0,3.35,0,.66-.13.88-.84.89-2,0-2,0-2.07-2,0-1,.44-2.3-.21-2.86s-1.83-.14-2.78-.14c-2.05,0-2.05,0-2.06-2,0-5.24,0-10.48-.07-15.72,0-.78.17-1,1-1,1.12.07,2.24,0,3.36,0,.57,0,.85-.14.72-.73-.52-2.24-.19-4.52-.24-6.78,0-.91-.21-1.17-1.16-1.17-16,.1-32,.14-48,.23-1,0-1.36-.2-1.3-1.28.1-1.75,0-3.52,0-5.28,0-.73-.18-.93-.93-.92-3.56.06-7.12,0-10.68.08-.74,0-.92-.18-.92-.92q0-23.7-.17-47.39c0-.75.18-.93.92-.93,3.56,0,7.12,0,10.68,0,.75,0,.93-.2.91-.93-.07-1.84,0-3.68-.06-5.52,0-.86.22-1,1-1Q66.25,46.34,83.53,46.26Z" transform="translate(-14 -19.93)"/><path class="cls-3" d="M136.14,78.1c0-10.28,0-20.56-.13-30.84,0-1,.23-1.23,1.22-1.23q11.34,0,22.68-.07c.9,0,1.11.21,1.11,1.1q.06,31,.21,61.91c0,.9-.2,1.12-1.1,1.11q-11.4,0-22.8.08c-.9,0-1.11-.21-1.11-1.1Q136.22,93.58,136.14,78.1Z" transform="translate(-14 -19.93)"/></g></svg>