<svg id="botao-iniciar" xmlns="http://www.w3.org/2000/svg" viewBox="0 0 266.33 82.28"><defs><style>.cls-1{fill:#c4c4c4;}.cls-2{fill:#fcfcfc;}.cls-3{fill:#333232;}.cls-4{fill:#363535;}</style></defs><title>iniciar</title><path class="cls-1" d="M1022.42,280.2H924.34c-15.94,0-25.14-5.48-25.48-15.62-.42-11.84-.38-23.71,0-35.55.3-10.29,9.25-15.9,25-15.91q98.61-.08,197.24,0c16,0,24.57,5.54,24.76,15.95.22,11.85.26,23.67,0,35.56-.21,9.95-9,15.5-24.27,15.56Q1072,280.28,1022.42,280.2Z" transform="translate(-889.14 -205.51)"/><path class="cls-2" d="M951.42,214.25c-38.55,3-46.4,20-53.92,42.5-2.27,6.8-11-24.13,2.26-37.5C913.35,205.5,931.24,204,951.42,214.25Z" transform="translate(-889.14 -205.51)"/><path class="cls-3" d="M1145.88,264.63c-.21,9.95-9,15.5-24.27,15.56q-49.59.09-99.19,0H924.34c-15.94,0-25.14-5.48-25.48-15.62-.42-11.84-.38-23.71,0-35.55.3-10.29,9.25-15.9,25-15.91q98.61-.08,197.24,0c16,0,24.57,5.54,24.76,15.95C1146.1,240.92,1146.14,252.74,1145.88,264.63Zm9.4-39.52c-.2-12.77-9.42-19.55-26.64-19.55q-106.12-.09-212.25,0c-17,0-26.6,6.89-26.92,19.49-.41,14.52-.45,29.06,0,43.58.36,12.42,10.27,19.14,27.41,19.14h105.55c35.56,0,71.16.06,106.74,0,16.45-.07,25.88-6.88,26.11-19.07C1155.55,254.11,1155.51,239.63,1155.28,225.11Z" transform="translate(-889.14 -205.51)"/><path class="cls-4" d="M954.82,249.67V234.35c0-1.81.27-2.57,2.37-2.53,5.72.15,5.74,0,5.74,5.83v23.67c0,1.55-.45,1.71-1.9,2-4.94.8-7.89-1-9.9-5.57a121.11,121.11,0,0,0-6.87-12.23c-1,.38-.62,1.16-.62,1.71,0,4.57-.09,9.14,0,13.69,0,1.66-.29,2.27-2.13,2.24-6,0-6,0-6-6V234c0-1.77.56-2,2.21-2.26,4.72-.67,7.58.91,9.53,5.42a124.89,124.89,0,0,0,7.1,12.61Z" transform="translate(-889.14 -205.51)"/><path class="cls-4" d="M1093.06,263.09h-7.75c-1,0-1.24-.64-1.59-1.27-1.24-2.24-2.45-4.48-3.7-6.72-.66-1.18-5.71-2.1-6.66-1.18A1.75,1.75,0,0,0,1073,255v2.49c-.12,1.8.75,4.69-.35,5.18-1.94.86-4.53.31-6.84.35-1,0-.92-.7-.92-1.39V233.34c0-1.16.31-1.63,1.53-1.6,6.38.16,12.76-.3,19.12.25,4.36.37,6.52,2.36,7,6.68a31.56,31.56,0,0,1-.25,9.65,5.4,5.4,0,0,1-3.31,4.33c-1.51.54-1.1,1.18-.55,2.13C1089.87,257.45,1091.38,260.1,1093.06,263.09Zm-14.7-24.89a33.47,33.47,0,0,1-3.47,0c-1.56-.18-2,.4-1.91,1.92.13,2,0,4,0,5.94,0,1,.16,1.58,1.4,1.53,2.46-.06,4.95,0,7.43,0a2.59,2.59,0,0,0,2.79-2.22c1.1-5.67,0-7.12-5.75-7.12Z" transform="translate(-889.14 -205.51)"/><path class="cls-4" d="M1062.57,263.09h-3.86c-4.55,0-4.59,0-6.32-4.18a1.77,1.77,0,0,0-2-1.39,23.84,23.84,0,0,1-4.47,0c-3.59-.47-6.29.21-6.78,4.43-.13,1-.85,1.2-1.78,1.18h-7.3l3.87-10.2c2.41-6.42,4.86-12.81,7.21-19.24.5-1.4,1.15-2,2.66-1.86,2.3.23,5.13-.86,6.76.42s1.81,4,2.58,6Zm-16.28-21.77c-.64,1.92-1,3.23-1.5,4.51-2.24,6.44-2.24,6.44,5,5.75C1048.66,248.28,1047.58,245.05,1046.29,241.32Z" transform="translate(-889.14 -205.51)"/><path class="cls-4" d="M1002.16,231.82h7.46c1.06,0,1.4.35,1.46,1.39.37,5,.41,5-4.55,5h-9.74c-1.88,0-2.79.82-2.79,2.7v13.67c0,1.89.77,2.69,2.68,2.65a112.13,112.13,0,0,0,12.15-.53c1.39-.18,2.21,0,2.16,1.85-.1,4.17,0,4.17-4.18,4.45-3.88.25-7.77.46-11.65.57-6.52.2-9.21-2.35-9.25-8.77,0-5.22-.09-10.45.16-15.66.22-4.51,2.32-6.66,6.78-7,3-.25,6.11,0,9.17,0Z" transform="translate(-889.14 -205.51)"/><path class="cls-4" d="M974.77,231.82c2.08,0,4.18.08,6.21,0,1.48-.08,1.93.47,1.74,1.84a8.43,8.43,0,0,0,0,1.74c.3,2-.15,3.35-2.64,2.85-1.27-.26-1.39.45-1.39,1.55,0,5.07.09,10.12,0,15.17,0,1.76.62,2.2,2.13,2s2,.48,2,2.06c0,4.18,0,4.18-4.1,4.18H968.3c-1.15,0-1.68-.28-1.54-1.5a11.61,11.61,0,0,0,0-2.5c-.19-1.61.22-2.56,2.08-2.24,1.55.28,2-.4,1.95-1.92-.09-5-.11-9.95,0-14.92,0-1.63-.55-2.09-2-1.83-1.88.34-2.11-.6-2.07-2.21.08-4.18,0-4.18,4.17-4.18Z" transform="translate(-889.14 -205.51)"/><path class="cls-4" d="M1020.79,263.09c-2,0-4-.12-6,0-1.59.13-2.07-.43-1.87-1.93a8.33,8.33,0,0,0,0-2.23c-.2-1.58.32-2.37,2-2.06s2-.57,2-2.12q-.13-7.32,0-14.66c0-1.5-.35-2.2-1.91-1.91s-2.2-.39-2.16-2.13c.11-4.26,0-4.26,4.32-4.26h10.19c1.14,0,1.7.25,1.57,1.51a9.16,9.16,0,0,0,0,2.22c.3,2-.23,3.18-2.57,2.69-1.16-.24-1.55.25-1.53,1.48,0,5.22.08,10.44,0,15.66,0,1.5.68,1.68,1.79,1.53,1.76-.25,2.45.22,2.37,2.23-.17,4,0,4-4,4Z" transform="translate(-889.14 -205.51)"/><path class="cls-4" d="M923.61,231.82h6.46c1.11,0,1.49.36,1.39,1.39a9.36,9.36,0,0,0,0,2c.31,2.14-.11,3.55-2.78,3-1.13-.24-1.39.36-1.39,1.39v15.66c0,1.39.5,1.81,1.71,1.6,2-.32,2.52.45,2.43,2.41-.15,3.79,0,3.8-3.95,3.8H917.29c-1.39,0-2.23-.22-1.94-1.85a5.64,5.64,0,0,0,0-1.74c-.26-1.89.17-3.06,2.43-2.64,1.15.2,1.6-.32,1.58-1.54V239.64c0-1.54-.75-1.67-1.82-1.47-2,.36-2.28-.59-2.23-2.33.11-4.08,0-4.08,4-4.08Z" transform="translate(-889.14 -205.51)"/><path class="cls-4" d="M1104.37,241.32a89.35,89.35,0,0,1-.66,10.84c-.08,1.16-.42,1.5-1.59,1.55-4.63.21-4.62.25-5.22-4.4-.69-5.36-.34-10.75-.46-16.14,0-1.06.34-1.54,1.4-1.39h.25c6.25-.27,6.25-.27,6.25,6Z" transform="translate(-889.14 -205.51)"/><path class="cls-4" d="M1129.25,241.32a88.08,88.08,0,0,1-.67,11.13c-.09,1.12-.48,1.33-1.49,1.4-4.72.27-4.69.3-5.29-4.32-.7-5.36-.35-10.75-.48-16.12,0-1.24.45-1.48,1.59-1.53,6.35-.25,6.34-.3,6.34,6Z" transform="translate(-889.14 -205.51)"/><path class="cls-4" d="M1116.81,241.43a96.2,96.2,0,0,1-.65,10.86c-.1,1.28-.61,1.39-1.69,1.46-4.56.15-4.52.18-5.11-4.18-.71-5.37-.36-10.76-.47-16.13,0-1.13.26-1.55,1.5-1.61,6.42-.3,6.42-.36,6.42,6.13Z" transform="translate(-889.14 -205.51)"/><path class="cls-4" d="M1100.44,263.09c-4,0-3.83,0-4-4-.12-2.36.7-3.07,2.87-2.78a8.55,8.55,0,0,0,1.24,0c3.86,0,3.73,0,3.91,3.91.08,2.16-.4,3.24-2.78,2.78A6,6,0,0,0,1100.44,263.09Z" transform="translate(-889.14 -205.51)"/><path class="cls-4" d="M1125.05,263.09c-3.71,0-3.5,0-3.77-3.73-.21-2.66.78-3.11,3.15-3,4.94.18,4.88,0,4.86,5,0,1.39-.32,2-1.76,1.78A22.79,22.79,0,0,0,1125.05,263.09Z" transform="translate(-889.14 -205.51)"/><path class="cls-4" d="M1112.86,263.09c-4,0-3.84,0-4-4-.08-2.07.34-3.14,2.63-2.78a7.42,7.42,0,0,0,1.49,0c3.83,0,3.69,0,3.87,3.94.12,2.21-.47,3.19-2.78,2.78A6.1,6.1,0,0,0,1112.86,263.09Z" transform="translate(-889.14 -205.51)"/></svg>