<svg xmlns="http://www.w3.org/2000/svg" viewBox="0 0 169 174"><defs><style>.cls-1{fill:#ffbb24;}.cls-2{fill:#fffdfd;}</style></defs><title>nomespokecertos</title><g id="Layer_6" data-name="Layer 6"><rect class="cls-1" width="169" height="174"/><rect class="cls-1" x="113" y="169" width="5" height="5"/></g><g id="Layer_7" data-name="Layer 7"><path d="M16.21,153.54,15.8,43.39c.94-.66,2-.33,3-.38,1.56-.07,1.62-.09,1.63-1.63,0-.67,0-1.35,0-2A1.25,1.25,0,0,1,21.88,38c.75,0,1.51-.05,2.27,0,1,0,1.4-.31,1.34-1.31a19.11,19.11,0,0,1,0-2.27,1.15,1.15,0,0,1,1.2-1.21,23.39,23.39,0,0,1,2.51,0c1,0,1.37-.39,1.3-1.35,0-.72,0-1.44,0-2.15.06-1.22.3-1.47,1.5-1.54.79-.05,1.59,0,2.39,0s1.15-.37,1.13-1.16,0-1.44,0-2.16a1.92,1.92,0,0,1,.37-1.35l125-.46c.65.94.33,2,.37,3,.07,1.56.09,1.61,1.63,1.63h2a1.24,1.24,0,0,1,1.39,1.4c0,.76.06,1.52,0,2.28-.05,1,.31,1.4,1.31,1.34.8,0,1.6,0,2.4,0A1.21,1.21,0,0,1,171.41,34c0,.76,0,1.52,0,2.27s.37,1.21,1.22,1.18a21.68,21.68,0,0,1,2.28,0c1.21.06,1.46.3,1.54,1.5,0,.79,0,1.59,0,2.39s.37,1.15,1.16,1.12,1.44,0,2.16,0a1.92,1.92,0,0,1,1.35.37l.41,110.15c-.95.66-2,.34-3,.38-1.53.07-1.6.1-1.62,1.66,0,.28,0,.56,0,.84-.07,1.26-.33,1.53-1.59,1.59-.75,0-1.52,0-2.28,0s-1.15.37-1.14,1.16,0,1.68,0,2.52a1.25,1.25,0,0,1-1.36,1.34l-.83,0c-3,0-2.81-.27-2.81,2.76,0,.24,0,.48,0,.72-.08,1.19-.34,1.47-1.52,1.55-.8.06-1.6,0-2.4,0a1,1,0,0,0-1.09,1.11c0,.72,0,1.44,0,2.16-.05,1.45-.31,1.71-1.8,1.76-.87,0-1.76,0-2.63,0l-8.16,0c-2.26,0-2.26,0-2.26,2.22,0,.4,0,.8,0,1.2,0,.86-.44,1.38-1.33,1.36-1.37,0-2.79.37-4.12-.32a2.29,2.29,0,0,1-.33-1.49c0-2.36,0-4.72,0-7.08,0-1.59.3-1.88,1.91-1.9,3.72,0,7.44,0,11.16-.05,1.7,0,1.77-.1,1.78-1.75,0-.64,0-1.28,0-1.92a1.26,1.26,0,0,1,1.34-1.36c.88,0,1.76,0,2.64,0a.91.91,0,0,0,1-1c0-.88,0-1.76,0-2.64a1.27,1.27,0,0,1,1.36-1.35l1.56,0c1.81,0,1.84,0,1.85-1.91,0-.56,0-1.12,0-1.68a1.3,1.3,0,0,1,1.4-1.44c.8,0,1.6,0,2.4,0s1.24-.29,1.19-1.13c-.17-3,.67-2.69,3-2.72.28,0,.56,0,.84,0,.79,0,1.18-.34,1.16-1.15,0-.4,0-.8,0-1.2q-.17-47.22-.35-94.43c0-2.28,0-2.28-2.3-2.28-2.69,0-2.74,0-2.76-2.75,0-2.27,0-2.27-2.33-2.27-2.61,0-2.71-.09-2.72-2.67,0-2.35,0-2.35-2.38-2.35h-1c-1,0-1.44-.53-1.46-1.5,0-.64,0-1.28,0-1.92,0-1.47-.12-1.57-1.56-1.59-.68,0-1.36,0-2,0a1.29,1.29,0,0,1-1.43-1.4c0-.72,0-1.44,0-2.16s-.39-1.24-1.24-1.2c-.31,0-.64,0-1,0L43.54,29h-.48c-1.64,0-1.7.09-1.72,1.69,0,3.09,0,3.09-3.08,3.13-1.63,0-1.7.08-1.69,1.69,0,3.49,0,3.36-3.35,3.37-1.58,0-1.67.11-1.68,1.74,0,.64,0,1.27,0,1.91a1.26,1.26,0,0,1-1.34,1.37c-.83,0-1.67,0-2.51,0s-1.16.38-1.15,1.18,0,1.36,0,2c-.05,1.52-.31,1.77-1.87,1.82-.68,0-1.36,0-2,0s-1.12.32-1.1,1.08c0,.36,0,.72,0,1.08q.16,47.4.35,94.79c0,2.11,0,2.11,2.11,2.11h.48c2.26,0,2.38.11,2.47,2.33.05,1.37.15,1.46,1.55,1.49.72,0,1.44,0,2.16,0a1.23,1.23,0,0,1,1.3,1.27c.07.88,0,1.76,0,2.64s.37,1.1,1.12,1.08c.23,0,.48,0,.72,0,3.18,0,3.18,0,3.21,3.13,0,.2,0,.4,0,.6-.06.9.33,1.33,1.26,1.3.72,0,1.44,0,2.16,0a1.28,1.28,0,0,1,1.36,1.35c0,.76,0,1.52,0,2.28,0,1.22.16,1.33,1.42,1.37.44,0,.88,0,1.32,0l69.11-.25c3,0,3,0,3,3,0,2,0,3.92,0,5.88a2.56,2.56,0,0,1-.32,1.62c-1.53.7-3.12.4-4.69.24-.56-.06-.69-.6-.75-1.1a21.37,21.37,0,0,1-.06-2.4c0-.81-.37-1.16-1.17-1.13-.44,0-.88,0-1.32,0L39,173.05c-2.93,0-2.94,0-3-2.92,0-.32,0-.64,0-1,0-.81-.37-1.16-1.17-1.14s-1.36,0-2,0c-1.52,0-1.77-.3-1.83-1.86,0-.52,0-1,0-1.56,0-1.48-.11-1.57-1.55-1.6-.64,0-1.28,0-1.92,0-1.19-.08-1.48-.35-1.56-1.52-.06-.8,0-1.6,0-2.4a1,1,0,0,0-1.1-1.08c-.8,0-1.6,0-2.4,0-1,0-1.5-.44-1.51-1.44,0-.08,0-.16,0-.24,0-2.46.17-2.37-2.48-2.37A3.17,3.17,0,0,1,16.21,153.54Z" transform="translate(-14 -20)"/><path d="M131.55,187.2v5l-5,0,0-5A7.2,7.2,0,0,1,131.55,187.2Z" transform="translate(-14 -20)"/><path class="cls-2" d="M131.55,187.2l-5.07,0v0c-.64-.94-.33-2-.37-3-.06-1.63-.06-1.62-1.68-1.68-1,0-2.08.29-3-.34h0c-.65-.94-.34-2-.37-3-.07-1.63-.06-1.63-1.69-1.68-1,0-2.08.29-3-.35l0,0c0-3-.07-5.92,0-8.88,0-1-.26-1.24-1.25-1.23q-36.06.18-72.12.31c-1.21,0-1.73-.22-1.57-1.52.11-.87,0-1.76,0-2.64s-.25-.95-1-.91c-1,.06-2.08,0-3.12,0-.57,0-.77-.17-.75-.75,0-1.08-.05-2.16,0-3.24,0-.81-.15-1.15-1-1.08s-2.08,0-3.11.05c-.77.06-1-.23-.93-1,.06-1.12,0-2.24,0-3.36,0-.57-.17-.77-.75-.75-1.08,0-2.16,0-3.24,0-.81.05-1.18-.14-1.08-1,.07-.67,0-1.36,0-2s-.21-.82-.82-.79c-1.16,0-2.32,0-3.48,0-.57,0-.82-.15-.76-.74a4.33,4.33,0,0,0,0-.72q-.16-48.48-.39-96.95c0-1.28.37-1.57,1.52-1.46.91.09,1.84,0,2.76,0,.64,0,.83-.2.8-.82,0-1.12,0-2.24,0-3.36,0-.66.16-.93.86-.89,1,0,2.09-.07,3.12,0s1.15-.29,1.09-1.15c-.08-1,0-2.08-.05-3.12,0-.64.19-.83.82-.81,1.12,0,2.24,0,3.36,0,.66,0,.93-.16.89-.86-.06-1.08,0-2.17-.05-3.24-.06-.83.27-1,1-1,1,0,2.08,0,3.12,0,.52,0,.7-.17.68-.69,0-1.08,0-2.16,0-3.24,0-.66.14-1,.85-.88.19,0,.4,0,.6,0q56-.21,112.08-.45c1.24,0,1.59.33,1.46,1.51-.09.83,0,1.68,0,2.51,0,.63.17.85.81.82,1,0,2.09,0,3.12,0,.86-.07,1.23.14,1.15,1.09s0,2.08,0,3.11c0,.71.22.89.89.86,1-.05,2.08,0,3.12,0,.62,0,.85.16.82.81-.05,1,.07,2.08,0,3.11s.33,1.21,1.22,1.14,2,0,3,0c.7,0,.9.22.87.89-.05,1.11,0,2.24,0,3.35,0,.62.15.86.8.82,1-.05,2.09.06,3.12,0s1.27.32,1.14,1.2a1,1,0,0,0,0,.24q.17,48.48.38,97c0,1.22-.29,1.62-1.49,1.48-.91-.1-1.84,0-2.76,0-.61,0-.87.15-.82.8s0,1.36,0,2c.11.88-.26,1.08-1.07,1-1.08-.06-2.16,0-3.24,0-.58,0-.76.18-.74.75,0,1.12,0,2.25,0,3.36,0,.72-.14,1-.91,1-1-.06-2,.05-3,0-.78-.05-.94.25-.91,1,.06,1.12,0,2.24,0,3.36,0,.57-.18.77-.75.75-1.12,0-2.24,0-3.36,0-.71,0-1,.14-1,.92.07,1.07,0,2.16,0,3.24.06.77-.24.92-1,.92-4.28,0-8.56,0-12.84,0-.89,0-1.14.21-1.12,1.12.07,3,0,6,0,9l0,0c-.94.65-2,.33-3,.37-1.63.07-1.63.06-1.68,1.69,0,1,.29,2.07-.35,3l0,0c-.94.64-2,.33-3,.37-1.63.06-1.63.06-1.68,1.69,0,1,.29,2.07-.35,3Z" transform="translate(-14 -20)"/><path d="M116.36,177.17c1.44,0,2.88,0,4.32,0,.57,0,.76.17.75.75,0,1.44,0,2.87,0,4.31-1.43,0-2.85,0-4.27,0-.62,0-.81-.17-.79-.79C116.41,180,116.37,178.6,116.36,177.17Z" transform="translate(-14 -20)"/><path d="M121.42,182.2c1.44,0,2.88,0,4.31,0,.58,0,.77.17.76.75,0,1.44,0,2.88,0,4.32-1.42,0-2.84,0-4.26,0-.63,0-.81-.16-.79-.79C121.47,185,121.43,183.62,121.42,182.2Z" transform="translate(-14 -20)"/><path d="M136.55,182.16c0-1.44,0-2.88,0-4.32,0-.57.17-.76.75-.75,1.43,0,2.87,0,4.31,0,0,1.42,0,2.85,0,4.27,0,.62-.17.81-.79.79C139.4,182.1,138,182.15,136.55,182.16Z" transform="translate(-14 -20)"/><path d="M131.53,187.22c0-1.44,0-2.88,0-4.32,0-.57.17-.76.74-.75,1.44,0,2.88,0,4.32,0,0,1.42,0,2.85,0,4.27,0,.62-.16.8-.78.79C134.38,187.16,133,187.21,131.53,187.22Z" transform="translate(-14 -20)"/></g></svg>