<svg xmlns="http://www.w3.org/2000/svg" viewBox="0 0 177 179"><defs><style>.cls-1{fill:#ffbb24;}.cls-2{fill:#fefefe;}</style></defs><title>novojogo</title><g id="Layer_6" data-name="Layer 6"><rect class="cls-1" width="177" height="179"/><rect class="cls-1" y="52" width="5" height="5"/><rect class="cls-1" x="115" y="174" width="5" height="5"/><rect class="cls-1" x="95" width="5" height="5"/></g><g id="Layer_5" data-name="Layer 5"><path d="M18.24,153.36V43.2c.9-.63,1.93-.32,2.91-.37,1.4-.06,1.49-.11,1.51-1.5,0-.71,0-1.43,0-2.15A1.25,1.25,0,0,1,24.1,37.8c.79,0,1.59,0,2.39,0s1.25-.3,1.22-1.18,0-1.68,0-2.52a1.22,1.22,0,0,1,1.34-1.33c.76,0,1.52,0,2.27,0,1.32,0,1.39-.1,1.41-1.45,0-.72,0-1.44,0-2.16a1.25,1.25,0,0,1,1.38-1.41c.84,0,1.68,0,2.52,0s1.14-.37,1.13-1.16,0-1.44,0-2.16A1.92,1.92,0,0,1,38.16,23H163.44c.65.94.32,2,.36,3,.07,1.56.09,1.63,1.62,1.63,3.33,0,3.2-.11,3.2,3.23,0,1.81,0,1.81,1.77,1.82.68,0,1.36,0,2,0A1.15,1.15,0,0,1,173.63,34a23.36,23.36,0,0,1,0,2.51c0,1,.39,1.36,1.35,1.3a19.46,19.46,0,0,1,2.16,0c1.21.06,1.46.31,1.53,1.5,0,.8,0,1.6,0,2.4s.37,1.14,1.16,1.13,1.44,0,2.16,0a1.92,1.92,0,0,1,1.35.37V153.36c-.78.59-1.69.36-2.55.37-2.06,0-2.06,0-2.11,2,0,.2,0,.4,0,.6a1.31,1.31,0,0,1-1.49,1.46c-.72,0-1.44,0-2.16,0-1,0-1.4.36-1.37,1.33,0,.72,0,1.44,0,2.16a1.22,1.22,0,0,1-1.29,1.28c-.84.06-1.68,0-2.51,0s-1.24.39-1.21,1.24c0,.6,0,1.2,0,1.8,0,1.73-.27,2-2.05,2-.44,0-.88,0-1.32,0-1.29,0-1.39.14-1.42,1.48,0,.48,0,1,0,1.44,0,1.88-.24,2.09-2.18,2.11-.44,0-.88,0-1.32,0H118.23c-1.31,0-1.41.13-1.44,1.45,0,.76,0,1.52-.05,2.28,0,.54-.18,1.11-.82,1.17-1.53.14-3.09.42-4.59-.22a2.38,2.38,0,0,1-.35-1.6c0-2.36,0-4.72,0-7.08,0-1.76.28-2,2-2.05,2.92,0,5.84,0,8.76,0h34.56c1.31,0,1.42-.15,1.46-1.46,0-.68,0-1.36,0-2a1.22,1.22,0,0,1,1.29-1.27c.76,0,1.52,0,2.28,0,1.26,0,1.38-.16,1.43-1.38,0-.76,0-1.52,0-2.28a1.27,1.27,0,0,1,1.35-1.35q1.2-.06,2.4,0c.93,0,1.3-.4,1.27-1.3q0-1,0-2c.06-1.34.33-1.62,1.64-1.68.68,0,1.36,0,2,0s1.12-.3,1.1-1.07c0-.2,0-.4,0-.6,0-2.27.18-2.39,2.51-2.41,2.67,0,2.53.2,2.53-2.55V51c0-2.33,0-2.33-2.28-2.33-2.67,0-2.74-.08-2.76-2.77,0-.24,0-.48,0-.72.07-1-.41-1.37-1.36-1.32-.64,0-1.28,0-1.92,0a1.33,1.33,0,0,1-1.5-1.47c0-.76,0-1.52,0-2.28s-.33-1.33-1.26-1.29c-.72,0-1.44,0-2.16,0-1.27-.07-1.54-.34-1.61-1.58,0-.76,0-1.52,0-2.28s-.38-1.17-1.17-1.16H160.2c-2.23,0-2.41-.2-2.43-2.38,0-.56,0-1.12,0-1.68a.86.86,0,0,0-.95-1c-.4,0-.8,0-1.2,0H45.94c-2.11,0-2.11,0-2.11,2.14,0,2.86,0,2.89-2.86,2.9h-.72c-1.3,0-1.42.16-1.46,1.47,0,.56,0,1.12,0,1.68,0,1.58-.31,1.84-1.93,1.88-.52,0-1,0-1.56,0-1.41,0-1.51.12-1.54,1.49,0,.56,0,1.12,0,1.68-.05,1.56-.29,1.82-1.82,1.86-.72,0-1.44,0-2.16,0a.9.9,0,0,0-1,1c0,.8,0,1.6,0,2.4a1.27,1.27,0,0,1-1.36,1.35l-1.44,0c-2.21,0-2.21,0-2.21,2.27v94.55c0,2.24,0,2.24,2.25,2.24h.24c2.39,0,2.5.12,2.55,2.49,0,1.5.09,1.57,1.55,1.59.64,0,1.28,0,1.92,0,1.2.07,1.48.33,1.55,1.51.05.8,0,1.6,0,2.4s.33,1.09,1.08,1.1,1.76,0,2.64,0a1.22,1.22,0,0,1,1.28,1.28c0,.32,0,.64,0,1,0,3-.21,2.74,2.81,2.76l.84,0a1.26,1.26,0,0,1,1.36,1.35c.05.8,0,1.6,0,2.4a.91.91,0,0,0,1,1H83.75c2.73,0,2.8.07,2.8,2.85,0,2,0,4.08,0,6.12a2.78,2.78,0,0,1-.32,1.74c-1.53.7-3.13.4-4.7.23-.62-.07-.71-.69-.75-1.22-.07-.84,0-1.68,0-2.52s-.36-1.17-1.16-1.14c-.4,0-.8,0-1.2,0H40.45c-2.6,0-2.67-.07-2.67-2.7,0-2.33,0-2.33-2.38-2.34h-.24c-2.27,0-2.41-.15-2.42-2.47,0-2.69.23-2.56-2.52-2.57h-.48c-1.75,0-2-.28-2-2,0-3,.28-2.76-2.8-2.78-2,0-2.2-.21-2.24-2.19s0-1.86-2-1.9C19.85,153.72,19,153.94,18.24,153.36Z" transform="translate(-12 -15)"/><path d="M96.24,192.24l0-4.82a7.63,7.63,0,0,1,5.08,0c0,1.61,0,3.21,0,4.82Z" transform="translate(-12 -15)"/><path class="cls-2" d="M101.3,187.42H96.22l0,0c-.67-.94-.34-2-.38-3-.06-1.63,0-1.62-1.68-1.68-1,0-2.08.29-3-.38l0,0c-.67-.94-.34-2-.38-3-.06-1.63,0-1.62-1.68-1.68-1,0-2.08.29-3-.38l0,0c0-3-.06-6.08,0-9.12,0-1-.18-1.25-1.2-1.25-13.4,0-26.8,0-40.2.05-1,0-1.45-.18-1.37-1.32s.53-2.67-.2-3.32-2.12-.17-3.23-.18c-1.58,0-1.55,0-1.59-1.55,0-1.14.51-2.66-.22-3.32s-2.13-.16-3.24-.17c-1.57,0-1.54,0-1.58-1.55,0-1.14.51-2.67-.22-3.32s-2.13-.16-3.24-.17c-1.57,0-1.57,0-1.57-1.56,0-2.52,0-2.52-2.52-2.52s-2.52,0-2.52-2.52q0-48,0-96c0-1,.21-1.43,1.33-1.36s2.86.55,3.55-.21.23-2.28.16-3.47c-.06-.89.18-1.15,1.09-1.12,1.3,0,3,.59,3.78-.22s.24-2.44.17-3.7c-.06-.9.19-1.19,1.1-1.11,1.07.09,2.16,0,3.24,0,.58,0,.75-.15.73-.73,0-1.2,0-2.4,0-3.6,0-.58.16-.75.73-.73,1.2,0,2.4,0,3.6,0,.59,0,.75-.17.73-.74,0-1.2,0-2.4,0-3.6,0-.59.17-.79.74-.71.2,0,.4,0,.6,0q56,0,112.06,0c1.07,0,1.42.23,1.36,1.34s-.55,2.85.21,3.54,2.29.25,3.48.15,1.41.25,1.35,1.35-.55,2.86.22,3.55,2.28.24,3.47.14,1.4.27,1.35,1.36-.56,2.85.22,3.54,2.29.23,3.48.15c.92-.07,1.12.23,1.1,1.11,0,1.22-.56,2.86.22,3.54s2.29.25,3.48.14,1.33.31,1.33,1.36q0,48.6,0,97.19c0,1.09-.27,1.52-1.35,1.32a.48.48,0,0,0-.12,0c-1.16,0-2.62-.38-3.38.18s-.19,2.08-.2,3.19c0,.58-.18.74-.75.72-1.12,0-2.24,0-3.36,0-.59,0-.74.18-.72.74,0,1.2,0,2.4,0,3.6,0,.6-.18.74-.74.72-1.16,0-2.32,0-3.48,0-.7,0-.87.22-.84.88.05,1.11,0,2.24,0,3.35,0,.71-.22.87-.88.84-1.12-.05-2.24,0-3.36,0-.71,0-.87.23-.83.88,0,1-.05,2,0,3,.07.83-.26,1-1,1-7.16,0-14.32,0-21.48,0-7.72,0-15.44,0-23.16,0-1,0-1.22.28-1.2,1.25.06,3,0,6.08,0,9.12l0,0c-.94.67-2,.34-3,.38-1.63.06-1.62.05-1.68,1.68,0,1,.29,2.08-.38,3l0,0c-.94.67-2,.34-3,.38-1.63.06-1.62.05-1.68,1.68,0,1,.29,2.08-.38,3Z" transform="translate(-12 -15)"/><path d="M106.3,182.42c0-1.43,0-2.86,0-4.28,0-.63.16-.81.79-.79,1.42,0,2.85,0,4.28,0,0,1.43,0,2.86,0,4.28,0,.63-.16.81-.79.79C109.16,182.37,107.73,182.41,106.3,182.42Z" transform="translate(-12 -15)"/><path d="M101.26,187.46c0-1.43,0-2.86,0-4.28,0-.63.16-.81.79-.79,1.42,0,2.85,0,4.28,0,0,1.43,0,2.86,0,4.28,0,.63-.16.81-.79.79C104.12,187.41,102.69,187.45,101.26,187.46Z" transform="translate(-12 -15)"/><path d="M86.14,177.34c1.43,0,2.86,0,4.28,0,.63,0,.81.16.79.79,0,1.42,0,2.85,0,4.28-1.43,0-2.86,0-4.28,0-.63,0-.81-.16-.79-.79C86.19,180.2,86.15,178.77,86.14,177.34Z" transform="translate(-12 -15)"/><path d="M91.18,182.38c1.43,0,2.86.05,4.28,0,.63,0,.81.16.79.79,0,1.42,0,2.85,0,4.28-1.43,0-2.86-.05-4.28,0-.63,0-.81-.16-.79-.79C91.23,185.24,91.19,183.81,91.18,182.38Z" transform="translate(-12 -15)"/></g></svg>