<svg id="Layer_1" data-name="Layer 1" xmlns="http://www.w3.org/2000/svg" viewBox="0 0 421.4 282.34"><defs><style>.cls-1{fill:#fcca06;}.cls-2{fill:#3666ac;}.cls-3{fill:#23386d;}.cls-4{fill:#c49f0b;}</style></defs><title>poke-logo</title><g id="Layer_4" data-name="Layer 4"><path class="cls-1" d="M450.19,830.52c.5-3.2.9-6.4,1.5-9.5.9-3.7,1.3-7.3,1.9-11,0-.2.4-.5.6-.7h5.7c3.7,0,3.7.1,4.1,3.5.6,4.7,1.5,9.6,2.2,14.4s1.5,9.7,2.2,14.6h0c-.7,0-1,.5-1.3.9-4.5,5.8-6.9,12.3-6.4,19.6a24.18,24.18,0,0,0,6.1,14.5c2.3,2.7,5.5,4.1,8.4,6.1-4.1-.6-8.4-1.2-12.5-1.7-1.3-.1-1.6-.9-1.8-2.1-1.3-8.6-2.6-17.4-4-26-.1-.7.2-1.7-1-1.9a1.42,1.42,0,0,0-.2.6h0c-1.7.5-2.4,1.8-3,3.3-1.3,3.2-2.2,6.6-4,9.5-2.6-5.4-5.1-10.6-7.7-15.9-.4-.7-.5-1.7-1.3-2.2-1.3,1-2.9,1.9-3.2,3.7-1.1,6.6-2.1,13.3-3,19.8-4.3-.7-8.5-1.3-12.8-2.1-1.2-.1-1.3-.7-1.2-1.8.7-3.7,1.3-7.4,1.9-11.1a2.89,2.89,0,0,1,.9-1.6c.7-.6,1.3-1.3,2.1-1.9,1.3-1.5,3.7-2.7,3.9-4.3s-2.4-2.7-3.8-4a2.5,2.5,0,0,1-.6-2.3c1.6-9.2,3.3-18.5,4.9-27.7H441a1.89,1.89,0,0,1,2.2,1.8c.5,3.4,1.2,6.9,1.8,10.3s1.2,6.4,1.9,10.2C448.39,833.42,450.49,832.82,450.19,830.52Z" transform="translate(-178.52 -639.16)"/><path class="cls-2" d="M544.59,905.72c-.6.5-.2,1.7-1.3,1.9-5.2-2.2-10.7-3.4-16.1-5.2-5.6-1.8-5.7-1.8-5.6-7.5,0-2.1-.5-3-2.7-3.2-.4,0-.6-.1-1-.1-5.1-.6-10.2-1.3-15.3-1.9-1.6-.2-2.4-.9-2.2-2.6.4-2.2.6-4.5.9-6.7.1-.6.4-1.3-.2-1.7a1.69,1.69,0,0,0-1.8.1,23.58,23.58,0,0,1-11.4,2.6c-2.9,0-3,.1-2.1,2.9.1,2.6,1.3,5,.6,7.5-.5-.1-1.1-.4-1.6-.5-9.2-1.6-18.5-3.3-27.7-4.7-1.9-.4-2.4-1-2.6-2.8-.2-3.7-.7-7.2-1.2-11.2-1.9,2.7-2.7,5.5-4.6,7.9-2.4-4.4-4.7-8.4-7.3-12.9-.5,2.7-.7,4.7-1.1,6.8-.5,2.6-1.1,2.9-3.7,2.6-7.7-1.2-15.3-2.4-23.1-3.5-1.6-.2-1.8-.9-1.6-2.2.5-3,1-6,1.6-9,.1-.6.6-1.3,0-1.8s-1.2.2-1.7.5a66.41,66.41,0,0,1-16.3,5.4c-3.7.6-3.7.6-3.2,4.1.1,1.8.1,3.5.2,5.4a3.87,3.87,0,0,0-.1,2.8v1.2a3.27,3.27,0,0,0,0,1.7,8,8,0,0,0,0,4.6c0,.4.1.6.1,1v.5a1,1,0,0,0,0,1.3v.5a12.44,12.44,0,0,1-.4,1.6c-8.4-3.3-16.2-7.7-24.3-11.6-8.5-4-17-8.2-25.6-12.4-1.5-.7-2.1-.6-2.1,1.2.1,2.7.1,5.4,0,8a2.91,2.91,0,0,0,1.9,2.9c1,.5,2.2.1,2.9.7a57.08,57.08,0,0,0,9.1,5.6c6.1,3.2,11.8,6.8,17.9,10.1,2.1,1.1,3.5,3,5.7,3.8,1.6.5,1.6,1.2,1.7,2.4,0,.1,0,.4.1.5a2.89,2.89,0,0,1-1.6,0c-4.5-2.1-9.1-3.8-13.4-6.2-7.4-4.3-15.2-7.5-22.8-11.4a1.49,1.49,0,0,0-1.6-.1v3.9a4.18,4.18,0,0,0-1,.4c-.4-.5-.6-.4-.9.1h0a17.9,17.9,0,0,0-4,.2c-5.7.9-11.4,1.7-17.2,2.6-1.6.2-2.3-.2-2.3-1.9a61.6,61.6,0,0,0-.5-7.5c0-.6-.1-1.6-1-1-2.1,1.6-4.5,2.7-6.2,4.7h0c-1.1-.1-1.8.5-2.7.9-6.4,2.9-13.1,4-20,1.9-7.5-2.2-12.9-6.8-15.9-14a32.35,32.35,0,0,1-2.2-12c-2.2.7-3.3,2.6-5,3.7-.9.5-.4,1.2-.1,1.9.7,2.9,1.6,6,2.2,8.9,1.2,5.7,4.7,9.7,9.4,12.9,7.4,5,15.6,5.5,23.9,2.3,1.6-.6,2.7-.5,3.4,1.1-7.7,6.8-16.5,9.6-26.8,7.5-1.6-.4-3.4-1.5-4.1,1.1-.1.4-.7.5-1.2.7-.7-1-1.5-.2-2.2,0-6.6,2.1-13.3,4-19.8,6.2-1.7.6-2.7.4-3.4-1.3-1.5-3.5-3.2-6.9-4.7-10.3-6-13.1-11.9-26.4-18-39.5-2.3-4.9-1.3-5.1-7.2-2.4-1.3.6-1.5,1.2-1,2.3,2.9,6.6,5.8,13.3,8.8,19.8,5.1,11.4,10.5,22.9,15.5,34.4.7,1.8,1.3,2.2,3.3,1.6,7.7-2.6,15.3-4.9,23-7.3,1,2.3-.2,3.4-2.1,4.6a29.41,29.41,0,0,1-7.5,3.8,180.8,180.8,0,0,0-19.3,6.2c-3.7.7-3.5.7-5-2.6-2.1-4.7-4.1-9.5-6.3-14.2s-4.4-9.6-6.7-14.4c-.1-.4-.1-.7-.2-1.1-3.7-8.2-7.2-16.4-11.1-24.6-2.4-5.2-1.1-4.6-6.3-2.4-1.8.7-2.4.4-3.3-1.1-3.3-5.6-6.7-11.1-10.1-16.5a69.94,69.94,0,0,0-5.5-9c0-.5-.4-1.1,0-1.6,2.2-2.1,3.8-4.9,6.9-5.8,2.3,2.7,3.8,6,5.6,8.9,3.3,5.2,2.2,4.3,7.2,1.7,1.8-.9,1.6-1.7.7-3-2.2-3.7-4.3-7.3-6.6-10.8-.6-1.1-1-2.3-2.2-3,3.7-2.7,7.7-4.9,11.6-7.3,2.7-1.2,5.2-2.6,7.9-3.8.7-.2,1.5-.5,2.2-.7a88.85,88.85,0,0,1,26.9-6.4h6.4c7.7.4,15.1,1.7,21.8,6,7.2,4.6,12,10.6,13.8,19,.5,1.3.2,2.8.4,4.1-.1,2.1-.4,4.3-.5,6.6,2.7-1.2,5-2.9,7.5-3.8,1-1.2.4-2.6.4-3.8-.2-3.3-.5-6.6-.5-9.9a2.81,2.81,0,0,1,1.6-2.6c1.9-1,4-1.7,5.6-3,.2,2.9.2,2.9,3.2,2.6.5-.1,1.1,0,1.7-.1,1.3-.1,1.9-.7,1.9-2.1a24.83,24.83,0,0,0-.7-7.2c1.8-.9,3.9-.9,5.6-2.1a1.27,1.27,0,0,0,.6-.1c.2,0,.5-.1.7-.1s.4-.2.5-.4c.6-.2,1.3-.4,1.9-.6,3.2-1.1,6.7-1.5,9.6-3.3h0a2.67,2.67,0,0,0,2.1-.5c3.7-1.1,7.3-2.2,11-3.3,3.4-1,3.4-1.1,3.8,2.3,0,.2.2.4.4.6-.5,3.2-1.1,6.3-.6,10.1,2.3-4.3,4.3-7.9,6.2-11.6.4-.7,1-1.5.7-2.4h0l.5-.5c1.1-.1,1.5.7,2.1,1.3a22,22,0,0,0,5.1,4,9.54,9.54,0,0,0,3.2,2.8c2.2,1.9,4.4,4,6.7,6,.4.4.9,1.1,1.6.5.5,2.1,2.6,2.8,3.9,4,.2.2.7.1,1.1-.1,1.2-.9,2.4-1.7,3.7-2.6a4.07,4.07,0,0,0,2.2-1c1.2-1,3.8-1,3.9-2.4s-1.8-2.7-2.8-3.9a1.65,1.65,0,0,0-2.4-.6,22.67,22.67,0,0,1-5,2.3c.1-.7.9-1.1,1.2-1.7,3.4-4.9,8.2-8.5,11.8-13.3.4-.5.9-.9,1.2-1.3,2.4,1.5,3.9,0,5.4-1.6,2.3-2.7,4.9-5.1,7.1-7.9,1.6-2.1,4-3.4,4.6-6.1h0c.5,0,.9-.1,1-.6,1.6-.2,1.6,1.3,2.2,2.1a19.34,19.34,0,0,1,2.2,2.8,116.47,116.47,0,0,0,8,11.8c.1.2.1.5.2.6.7,1.2,2.1,2.3,2.1,3.5s-2.3,1.3-3.2,2.4a28.48,28.48,0,0,0-5.5,2.8,104.49,104.49,0,0,0-11,5.8,19.53,19.53,0,0,1,4.9,1.2c1.5.2,3,.5,4.5.7a50.41,50.41,0,0,1,8.6,4.5,50.48,50.48,0,0,1,7.4,7.8c1-6.1,2.1-11.4,2.6-16.8.9-.5,1.7-.2,2.6-.4,3.8,0,7.5-.1,11.4-.1,1.8,0,3.7.6,5.4-.4,3.8-2.2,7.7-4,12.3-3.4a50.45,50.45,0,0,0,5.5,0H468c1.1.1,2.2.1,3.3.1s1.5.4,1.6,1.2c.5,3.2,1,6.3,1.5,9.4,1.1,7.3,2.3,14.6,3.5,22.4a36.54,36.54,0,0,1,10.8-5.1c1.9-.2,3.9-.6,6-.7,1.2-.1,1.5-.5,1.5-1.6-.1-1.9-.1-3.9-.1-5.8a.48.48,0,0,0,0-.7V818c1.5,0,2.9,0,4.3-.1,1.6-.1,2.4-.7,2.3-2.6-.1-2.9,0-5.8-.1-8.8,4.4.5,8.6,1.8,13,2.7,6.2,1.2,12.3,2.7,18.5,3.8,2.8.5,4.5,1.6,4.6,4.5.5,2.8,1.1,5.6,1.6,8.4a36,36,0,0,0,2.7-10.1v.1l.5-.5c6.4,1,12.7,2.9,19.1,4.3a74.77,74.77,0,0,0,8.2,1.8c2.2.4,2.6,1.6,1.9,3.3-.7,2.4-1.7,4.9-2.4,7.4-1.6,4.9-3.3,9.9-4.9,14.7l-.6,1.8c-2.3,6.2-4.5,12.4-6.3,18.7-3,8.3-5.8,16.7-8.5,25.1A56.54,56.54,0,0,0,544.59,905.72Zm-233.5-31.9.5-.5h0a3.74,3.74,0,0,0,.6-.7l.1-.1c7.9-8.3,8-22.4.2-29.7s-22.1-6.4-29.9,1.5v0a1.15,1.15,0,0,0-.9.6h0c-.1.1-.4.2-.5.5-6.9,6.4-10.2,14.2-8.2,23.5,2.2,9.4,12.2,15.8,21.4,14.1a28.55,28.55,0,0,0,15.9-8.5c.6-.1.8-.4.8-.7Zm41.2-33.1c-.2.2-.4.6,0,.7,2.1.7,4.3,1.5,6.4,2.3a10.75,10.75,0,0,0-.4-2.3v-6.3C356.19,837,354.19,838.92,352.29,840.72Zm49.2,2.2h0c-3.2,1.1-6.3,2.3-9.9,2.1l1.5-1.8c5.6-5.8,11.1-11.7,16.7-17.5a13.07,13.07,0,0,0,1.2-1.1c2.2-2.3,2.2-2.3-.2-4.5a26.12,26.12,0,0,0-20.9-6.4c-6.2.7-11.9,2.6-16.5,6.9h0a1.33,1.33,0,0,0-.6.5c-7.1,6.2-9.2,13.9-7.2,22.8,2.1,8.6,8.2,13.5,16.5,15.6a31.61,31.61,0,0,0,17.5-.6c5.8-1.8,11.4-4.1,15.9-8.4a4.36,4.36,0,0,0,1.1-.9c1.7-1.1,2.1-2.2.1-3.7-2.2-1.6-4.1-3.7-6.2-5.5-3.2-2.8-3.2-2.8-6.1.4-.9.6-1.6,1.2-2.4,1.8C402,842.52,401.79,842.62,401.49,842.92Zm54.1,8.7a1.42,1.42,0,0,0,.2-.6c1.2.2.9,1.3,1,1.9,1.3,8.6,2.7,17.3,4,26a2,2,0,0,0,1.8,2.1c4.1.5,8.4,1.1,12.5,1.7,1.1.5,2.4,1,3.2.2s.1-2.1-.1-3.2c-.2-.9-1.2-1-1.8-1.3a23.52,23.52,0,0,1-12.4-24.3c.6-4.5,2.6-8.5,4.6-12.5h0c1.3-1.7,3.3-3,2.9-5.8-1.6-9.4-2.9-18.7-4.4-28.1-.1-1.1-.6-1.6-1.8-1.6q-4.2.15-8.4,0c-2.3-.1-3,.9-2.4,2.9a3.74,3.74,0,0,0-.6.7c-.6,3.7-1.1,7.3-1.9,11-.7,3.2-1,6.3-1.5,9.5-.9-.4-.9-1.2-1-1.9-1-5.5-1.9-10.8-2.9-16.3-.4-1.8-1.1-2.6-3.2-2.4a104.6,104.6,0,0,1-11.2,0c-2.7-.2-3.4,1-3.3,3.2-1.6,9.2-3.3,18.5-4.9,27.7a2.44,2.44,0,0,0,.6,2.3c1.3,1.3,4.1,2.3,3.8,4s-2.6,2.9-3.9,4.3a12.86,12.86,0,0,1-2.1,1.9,3.67,3.67,0,0,0-.9,1.6c-.6,3.8-1.2,7.4-1.9,11.1-.2,1,0,1.6,1.2,1.8,4.3.6,8.5,1.3,12.8,2.1,1.9,1.1,2.6.1,2.8-1.7,1.1-7.3,2.3-14.5,3.4-21.8.9.5,1,1.3,1.3,2.2,2.6,5.2,5.1,10.6,7.7,15.9a3.43,3.43,0,0,0,1.3,2.2c1.7-4.9,4-9.7,5.5-14.8Zm-52.8-55.7c.9-.4,1.6-.7,2.4-1,1.6-.5,1.7-1.2.6-2.4-1.5-1.7-2.7-3.5-4-5.2-2.8-3.7-2.8-3.7-5.5.1-4.1,4.7-8.2,9.6-12.3,14.4-.9,1-.2,1.5.1,2.2.5.9,1,.7,1.8.4C391.59,801.42,397.19,798.72,402.79,795.92Zm104.5,70.2h0a20.16,20.16,0,0,0,5.5-9.7c2.6-9-1.2-17.9-9-21.7s-18.9-1.7-24.8,4.5h0c-.2.1-.4.4-.6.5a22.91,22.91,0,0,0-7.9,12c-2.4,8.5.6,16.8,7.5,21.1,9.1,5.5,22.8,1.9,28.7-6.3C507.19,866.62,507.29,866.42,507.29,866.12Zm32-12.3a.22.22,0,0,0-.2.2,2.2,2.2,0,0,1-.6-1.5c-2.3-10.6-4.5-21.2-6.8-31.8A3,3,0,0,0,529,818c-5.7-1-11.4-2.1-17-3.3-3.9-.9-3.9-.9-3.9,3-.9,2.2.6,2.7,2.3,2.9,2.1.2,2.7,1.1,2.1,3.3a32.89,32.89,0,0,0-.7,7.1,5.76,5.76,0,0,0,1.2,3.2,24.38,24.38,0,0,1,6.3,16.2c0,8.8-3.8,15.9-10.1,21.9-.6.6-1.5,1.1-1.6,2.2-.1,2.6-.5,5-.7,7.5-.1,1,.1,1.5,1.2,1.6,3.3.4,6.4,1,9.7,1.3,1.6.7,2.6.4,2.8-1.6.7-4.7,1.6-9.6,2.6-14.4,1.1-5.5,1.6-11.1,3.3-16.5.4,13.6.7,27.3,1,40.9,0,1.5.2,2.3,1.8,2.7,2.9.7,5.8,1.6,8.8,2.4,1.1.6,1.8.7,2.2-.9.5-1.8,1.2-3.7,1.7-5.4,7.2-21.4,14.5-43,21.7-64.4.6-1.8.2-2.4-1.6-2.7-4-.7-7.9-1.7-11.9-2.6-3.5-.7-3.5-.7-4,2.8-2.4,9.1-4.6,18.3-6.8,27.4l-.1.1A2.87,2.87,0,0,0,539.29,853.82Zm-272-3.8h0a27.81,27.81,0,0,0,6.3-12c2.4-9-.5-16.3-7.7-22.1-6.7-5.5-14.7-6.7-22.9-6.7-15.2,0-29,5.1-41.9,12.7-.4.2-1.5.5-.6,1.3,2.4,4.3,4.9,8.4,7.4,12.7,2.7,4.4,2.7,4.5,7.2,2.2,2.1-1.1,3.3-1.2,3.8,1.3,0,.2.2.5.2.6,9,19.7,18,39.4,27,59.3.6,1.3,1.2,1.9,2.8,1.3,2.8-1.1,5.7-1.9,8.6-2.8a5,5,0,0,0,1.3-.4c2.2-.2,2.6-1.3,1.8-3.2a47.73,47.73,0,0,1-1.3-4.7c-2.3-8.5-4.6-17.2-6.9-25.7.5-1,1.6-1.3,2.4-1.8,4.5-3.2,8.8-6.6,11.8-11.2C267.19,850.52,267.29,850.42,267.29,850Zm74.1-6.2c0-1,.9-1.5,1.5-2.1,5.7-6.1,11.4-12,17.3-18.1a15.37,15.37,0,0,1,1.9-1.7c.7-.6.6-1.1-.1-1.7l-13.8-12.9c-.6-.5-1.1-.7-1.5,0-.6,1.1-1.9,1.7-2.1,3a7.53,7.53,0,0,0-.9.9c-3.8,5.8-7.9,11.4-12.2,16.9-.5-6.6-1-13.1-1.3-19.7-.1-1.2-.2-1.8-1.7-1.3-6.2,1.8-12.3,3.7-18.5,5.4-1.3.4-1.6,1.1-1.2,2.2-.1,3.9-.1,3.9,3.7,2.9.4-.1.6-.1,1-.2,1.1-.4,1.6-.1,1.6,1.1.2,3.2.6,6.4.9,9.6.5,5.8.1,11.9,5,16.5a5.23,5.23,0,0,1,.7,1.2c4,8.5,3.2,16.9-.9,25.2a4.78,4.78,0,0,0-1,2.8,79.27,79.27,0,0,1,.7,8.4c.1,1.2.6,1.5,1.7,1.2,2.8-.5,5.7-.7,8.5-1.2,3.4-.4,3.4-.4,3.4-3.4,0-7.8,0-15.6-.1-23.4.9-.1,1.5.5,2.2.7,8.3,4,16.5,8.2,24.9,12.2,6.9,3.4,14,6.8,20.9,10.2,1.2.6,2.3,1.2,3.8,1.9,0-4.3-.1-8,.1-11.9.1-2.2-.7-2.6-2.7-2.9-8.9-1.5-16.1-5.7-20.9-13.4a3.12,3.12,0,0,0-1.5-1.5C354.29,848.82,348,845.92,341.39,843.82Zm-43.5-14.2a2.18,2.18,0,0,0,2.1-.1c1.6-.5,2.7-.4,2.7,1.7,0,.7,0,1.7,1.2,1.9a20.78,20.78,0,0,1,4.1,1.1c1.5.5,1.7-.1,1.6-1.3-.1-2.1-.4-4.1-.5-6.3-.1-1.1-.7-1.1-1.7-1A25.43,25.43,0,0,0,297.89,829.62Zm121.4-2.8c-1.3,1.1-2.4,2.1-3.5,3.2-3,3-3,3,.4,5.7,1.1.9,1.7.9,1.9-.6C418.49,832.32,418.79,829.62,419.29,826.82Zm79.6.5a54.31,54.31,0,0,1,6.1,1.8c.6.2,1.7,1.3,2.1-.1.4-1.2.5-2.6-1.3-2.9C503.39,825.62,501.09,825.22,498.89,827.32Z" transform="translate(-178.52 -639.16)"/><path class="cls-3" d="M190.39,821.22c1.2.6,1.6,1.9,2.2,3,2.2,3.5,4.4,7.3,6.6,10.8.9,1.3,1.1,2.2-.7,3-5,2.6-3.9,3.4-7.2-1.7-1.8-2.9-3.3-6.2-5.6-8.9a2,2,0,0,1,.6-2.2C187.69,823.92,189.09,822.52,190.39,821.22Z" transform="translate(-178.52 -639.16)"/><path class="cls-3" d="M495.09,813.12c.6-1.5-.4-3.2.7-4.6,2.1-1,4.1-1.9,6.2-2.9,0,2.9-.1,5.8.1,8.8.1,1.8-.7,2.4-2.3,2.6s-2.9.1-4.3.1C495.39,815.72,495.19,814.42,495.09,813.12Z" transform="translate(-178.52 -639.16)"/><path class="cls-3" d="M383,789.42a56.62,56.62,0,0,0,7.2-7.5c1.9-1.5,2.9-3.9,5.4-4.7.1-.1.2-.1.4-.2,1-.4,1.8-1.1,2.9-1.1-.6,2.7-3.2,4-4.6,6.1a88.84,88.84,0,0,1-7.1,7.9c-1.5,1.7-2.9,3-5.2,1.6,0-.2.1-.4.1-.6h0a.22.22,0,0,0,.2-.2C382.59,790.22,382.79,789.82,383,789.42Z" transform="translate(-178.52 -639.16)"/><path class="cls-3" d="M542.19,814.92a31,31,0,0,1-2.7,10.1c-.5-2.8-1.1-5.6-1.6-8.4C539.49,816.32,540.59,815,542.19,814.92Z" transform="translate(-178.52 -639.16)"/><path class="cls-3" d="M538,911.42c-1.2.4-2.2-.2-3.3-.6-5.7-1.8-11.6-3.7-17.3-5.4-1.6-.5-2.6-1.1-2.4-2.8s-.2-3.2-.1-4.7-.5-1.8-1.9-1.9c-5.7-.7-11.3-1.6-17-2.3-2.1-.2-2.4-1.1-2.1-2.9.5-2.6.6-5.2,1-8.3a41.3,41.3,0,0,1-9.2,2.3c-.9-2.8-.7-2.9,2.1-2.9,4,0,7.9-.5,11.4-2.6a1.51,1.51,0,0,1,1.8-.1c.6.4.4,1.1.2,1.7-.2,2.2-.5,4.5-.9,6.7-.2,1.8.6,2.4,2.2,2.6,5.1.6,10.2,1.3,15.3,1.9.4,0,.6.1,1,.1,2.1,0,2.7,1.1,2.7,3.2-.1,5.8,0,5.7,5.6,7.5,5.4,1.7,10.8,3,16.1,5.2C541.69,909.42,539.49,909.82,538,911.42Z" transform="translate(-178.52 -639.16)"/><path class="cls-1" d="M266.79,851c-3,4.7-7.3,8-11.8,11.2a8.88,8.88,0,0,0-2.4,1.8c-3.3,1.3-3.4,1.6-2.6,4.6,1.2,4.5,2.4,8.9,3.7,13.4,1.3,5.4,3.2,10.5,4.1,15.9-2.9,1-5.8,1.8-8.6,2.8-1.6.6-2.2.1-2.8-1.3q-13.5-29.55-27-59.3a1.42,1.42,0,0,1-.2-.6c-.6-2.6-1.8-2.4-3.8-1.3-4.5,2.4-4.6,2.3-7.2-2.2-2.4-4.1-5-8.4-7.4-12.7,2.3-.6,4.1-1.9,6.3-2.9,11.4-5.2,23.2-8.6,36-7.9,5.4.2,10.7,1.1,15.6,3.8,10.3,6,15.1,14.4,11.7,26.4-.7,2.6-2.4,4.7-2.9,7.4h0A2.48,2.48,0,0,1,266.79,851Zm-16.6,5.1c1.8-1.3,3.7-2.6,5.4-3.9a16.8,16.8,0,0,0,5.7-7.7c2.9-8.6-3.2-16.2-12.2-15.1a29.07,29.07,0,0,0-6.4,1.8c-2.2.6-2.8,1.9-2.1,4q3.3,10,6.3,20.1C247.69,858,248.09,858.12,250.19,856.12Z" transform="translate(-178.52 -639.16)"/><path class="cls-1" d="M538,898.22c-2.9-.9-5.8-1.7-8.8-2.4-1.6-.4-1.8-1.2-1.8-2.7-.2-13.6-.6-27.3-1-40.9,0-.6,0-1-.7-.5a6.67,6.67,0,0,0-3,5.4c-.1,1.6-.5,3-.7,4.6-1.3,7.7-2.7,15.3-4,23-3.3-.5-6.4-1-9.7-1.3-1.1-.1-1.3-.6-1.2-1.6a61.46,61.46,0,0,0,.7-7.5c.1-1.1.9-1.6,1.6-2.2,6.2-6.1,10-13.1,10.1-21.9a24.19,24.19,0,0,0-6.3-16.2,3.93,3.93,0,0,1-1.2-3.2c.1-2.4,0-4.9.7-7.1s0-3-2.1-3.3c-1.7-.2-3.2-.7-2.3-2.9,5.8.5,11.3,2.3,17.2,3.2,2.4.4,3.3,1.6,3.8,3.7,1.9,9.6,4,19.1,6.1,28.7.2,1.2,0,3.2,1.1,3.3s2.3-1.5,2.9-2.7a.22.22,0,0,1,.2-.2c.1-.1.1-.2.1-.4,2.1-9.1,4.3-18.4,6.8-27.4,4.1,1,8.4,2.1,12.5,2.7,2.4.4,2.4,1.2,1.8,3.2-4.7,14.1-9.5,28.2-14.2,42.3C543.39,881.82,540.79,890,538,898.22Z" transform="translate(-178.52 -639.16)"/><path class="cls-1" d="M360,824.32c-5.7,6.1-11.6,12-17.3,18.1-.6.6-1.5,1-1.5,2.1-.2.1-.5.2-.6.4-2.8,2.3-2.8,2.3.6,3.7,5,1.9,9.9,3.9,14.8,5.8a6.12,6.12,0,0,1,3.4,2.7,25.15,25.15,0,0,0,5.2,6.1,32.9,32.9,0,0,0,15.9,6.9c.7.1,1.7,0,1.6,1-.1,2.8.6,5.7-.5,8.5-6.9-3.4-14-6.8-20.9-10.2-8.3-4-16.5-8.2-24.9-12.2-.7-.4-1.3-1-2.2-.7-2.6,1.7-3.4,3.9-3.3,6.9.2,6.6,0,13.1,0,19.8-2.8.4-5.7.7-8.5,1.2-1.1.1-1.6,0-1.7-1.2-.1-2.8-.5-5.6-.7-8.4a4.78,4.78,0,0,1,1-2.8c4.1-8.3,4.9-16.7.9-25.2-.2-.4-.4-1-.7-1.2-4.9-4.6-4.5-10.7-5-16.5-.2-3.2-.6-6.4-.9-9.6-.1-1.2-.6-1.5-1.6-1.1a8.66,8.66,0,0,1-1,.2c-3.8,1-3.8,1-3.7-2.9a9.26,9.26,0,0,0,2.3-.4c4.6-1.3,9.2-2.6,13.8-4,1.8-.6,2.4-.2,2.4,1.7,0,4.5.2,8.9.5,13.4.1,2.2.5,4.3.7,6.6a13.18,13.18,0,0,0,3-3.9c4.3-5.5,8.4-11.1,12.2-16.9.2-.4.5-.5.9-.9.7,0,1.2.6,1.8,1.1,3.8,3.5,7.5,7.2,11.4,10.7C358.49,823.32,359.09,824.12,360,824.32Z" transform="translate(-178.52 -639.16)"/><path class="cls-1" d="M409.79,825.82c-5.6,5.8-11.1,11.7-16.7,17.5l-1.5,1.8c-.7.7-1.6,1.3-2.3,2.1-.2.2-.7.6-.4,1,.2.2.7.2,1.1.2a24.71,24.71,0,0,0,7.1-1.8c1.6-.9,3.7-1.2,4.3-3.4h0c.4.1.5-.1.6-.4.9-.6,1.6-1.2,2.4-1.8,3.8,3,7.1,6.7,11.1,9.5-4.5,4.3-10.1,6.4-15.9,8.4a31.61,31.61,0,0,1-17.5.6c-8.5-2.1-14.5-6.9-16.5-15.6-2.2-8.9,0-16.7,7.2-22.8a1.33,1.33,0,0,0,.6-.5h0a3.84,3.84,0,0,0,2.1-.5,32.37,32.37,0,0,1,17.3-3.3C399.69,817.62,405.39,820.42,409.79,825.82Zm-29.2,1.1c-.7-.5-1.2,0-1.6.5-4,4.7-5.4,9.7-2.4,15.6,1.7,3.4,2.1,3.5,5.5,2.3.2-.1.6-.1.9-.4,5-5.5,9.9-11.1,14.8-16.5,1-1.1.2-1.6-.5-2.2C392.69,822.12,386.19,822.42,380.59,826.92Z" transform="translate(-178.52 -639.16)"/><path class="cls-1" d="M310.49,874.42a28.27,28.27,0,0,1-15.9,8.5c-9.4,1.7-19.3-4.7-21.4-14.1s1.2-17,8.2-23.5c.1-.1.4-.2.5-.5h0c.5,0,.9-.1.9-.6v0a1.61,1.61,0,0,0,1.6-.4,24.42,24.42,0,0,1,13.8-2.8,17.68,17.68,0,0,1,13.6,7.2c5.1,6.9,4.6,14.4,1.3,21.8-.4.7-1.1,1.5-.6,2.3l-.1.1c-.7-.2-.7.2-.6.7h0c-.4,0-.5.2-.5.5h0C310.79,873.72,310.49,874,310.49,874.42Zm-22.4-27.1h0c-.5,0-.6.4-.6.9h0a1.43,1.43,0,0,0-1.2.6c-4.6,5.1-4.1,11.6,1.5,15.8s14,1.9,16.4-2.4h0c.4,0,.5-.1.6-.5,4.6-4.3,5.5-7.8,3.3-13.1-.5-1.1-1-.7-1.8-.2-2.3,1.5-1.9,3.7-2.1,5.8-3.8,1.8-8,.9-9.9-2.3a5.23,5.23,0,0,1-.1-5.4c1-1.7,2.7-2.6,4.9-3.5a12.45,12.45,0,0,0-10.6,3.8C288.49,846.92,288.29,847.12,288.09,847.32Z" transform="translate(-178.52 -639.16)"/><path class="cls-1" d="M506.79,865.92c-6,8.3-19.7,11.8-28.7,6.3a18.12,18.12,0,0,1-7.5-21.1,24.39,24.39,0,0,1,7.9-12c.2-.1.4-.4.6-.5h0c3.3-.7,6.2-2.7,9.7-3.2,6.7-.9,12.9.5,17.4,5.6,5.6,6.4,5.7,13.8,2.3,21.3-.5,1-1.2,1.8-1.1,3h0C507.19,865.52,506.89,865.62,506.79,865.92Zm-24.5-23.6h0c-.5.1-.6.5-.5,1h0a1.08,1.08,0,0,0-1.2.5c-1.7,2.6-2.8,5.4-2.1,8.4a10.72,10.72,0,0,0,7.9,8c4.5,1.3,8.4-.1,11.9-2.9.2-.1.1-.6.2-.9h0c.5.1.9,0,1-.6h0c.4,0,.5-.1.6-.5,3.9-3.5,5.5-7.7,3.4-12.7-.2-.9-.6-.9-1.3-.2-1.8,1.5-2.9,3.2-2.4,5.6a7.5,7.5,0,0,1-8.6-.7c-2.1-1.8-2.6-4-1.3-6.8a6.75,6.75,0,0,0,5.1-2.6c.5-.6.7-1.1-.5-1.1a12.67,12.67,0,0,0-11.6,5.1C482.59,841.92,482.49,842.12,482.29,842.32Z" transform="translate(-178.52 -639.16)"/><path class="cls-3" d="M300.69,893.42c-.2-.1-.5-.4-.7-.5-.7-1.7-1.8-1.7-3.4-1.1-8.4,3-16.4,2.7-23.9-2.3-4.6-3.2-8.2-7.2-9.4-12.9-.6-3-1.5-6-2.2-8.9-.1-.6-.6-1.5.1-1.9,1.7-1.1,2.9-2.9,5-3.7.2,4.1.6,8.2,2.2,12,3,7.3,8.5,11.8,15.9,14,6.9,2.1,13.5,1,20-1.9a5.43,5.43,0,0,1,2.7-.9c-1.6,1.8-3.9,2.9-5.8,4.4a1.62,1.62,0,0,0-.9,1.6c.1.6.6.7,1.1.7a7.38,7.38,0,0,1,5.6,2.2c.9.9,1.3,0,1.2-.5-.5-2.7.1-5.6-1.2-8.3,1.7-2.1,4.1-3.3,6.2-4.7.9-.6,1,.4,1,1,.2,2.6.5,5,.5,7.5,0,1.7.7,2.2,2.3,1.9,5.7-.9,11.4-1.6,17.2-2.6a13.46,13.46,0,0,1,4-.2,4.79,4.79,0,0,1-2.9,1.8,3.37,3.37,0,0,0-2.4,3.7c0,1.3-.7,1.7-1.7,2.3-3.4,2.2-7.3,3-11.2,3.5-4.4.5-8.6,1.3-12.9,1.9h-.5c-.9-1.5.2-3.8-.9-4.4C304.19,895.72,303.09,893.52,300.69,893.42Z" transform="translate(-178.52 -639.16)"/><path class="cls-3" d="M376.19,893.72c1.9.1,3.8.4,3.3,3-.1.5.1,1.2.6,1.1,1.9-.7,1.6,1.1,2.3,1.8-1,.5-1.9,1-3,1.5,0-1.1-.1-1.8-1.7-2.4-2.1-.7-3.7-2.7-5.7-3.8-6-3.3-11.8-6.9-17.9-10.1a52.94,52.94,0,0,1-9.1-5.6c-.7-.6-1.9-.2-2.9-.7a2.76,2.76,0,0,1-1.9-2.9c.1-2.7.1-5.4,0-8-.1-1.8.5-1.9,2.1-1.2,8.5,4.1,17,8.3,25.6,12.4,8.2,3.9,15.9,8.3,24.3,11.6-1.6,1.8-4,2.4-6.1,3.5-.7.4-1.3-.2-1.9-.5-2.8-1.3-5.6-2.7-8.4-4a1.53,1.53,0,0,0-1.6,0c-.5.4-.1.9-.1,1.3s.4.6.6.2c.9-1.5,1.7-.1,2.1.2,1.1.9-.7.9-.6,1.5a3.88,3.88,0,0,0,0,1.1c-.1.1-.2.4-.4.5a.35.35,0,0,1,.2.1C376.19,894.22,376.19,894,376.19,893.72Z" transform="translate(-178.52 -639.16)"/><path class="cls-3" d="M486.39,892.22a13.4,13.4,0,0,1-12,2.6c-7.9-1.8-15.9-2.9-24-4.3-1.6-.2-2.3-.9-2.4-2.4s-.4-3.2-.6-4.6c-.1-1.2-.6-1.2-1.6-.7-3.8,1.8-3.9,1.8-5.7-1.8-1-2.1-1.9-2.4-3.8-1.1a7.16,7.16,0,0,1-5.6,1.2c-7.8-1.5-15.7-2.6-23.6-3.7-1.7-.2-2.1-.7-1.7-2.4.6-3,1-6.1,1.6-9.6a47.85,47.85,0,0,1-14.5,5.6c-.5-3.5-.5-3.5,3.2-4.1a62.46,62.46,0,0,0,16.3-5.4c.5-.2,1.1-1,1.7-.5s.1,1.2,0,1.8c-.5,3-1.1,6-1.6,9-.2,1.2,0,1.9,1.6,2.2,7.7,1.1,15.5,2.3,23.1,3.5,2.6.4,3.2,0,3.7-2.6.4-2.1.7-4.1,1.1-6.8,2.6,4.5,4.9,8.5,7.3,12.9,1.9-2.4,2.7-5.2,4.6-7.9.5,4,1,7.7,1.2,11.2.1,1.8.5,2.4,2.6,2.8,9.2,1.5,18.5,3.2,27.7,4.7A3,3,0,0,1,486.39,892.22Z" transform="translate(-178.52 -639.16)"/><path class="cls-3" d="M267.79,902.42c-1.9,1.1-3.7,2.7-5.7,3.4-7.7,2.4-15.3,4.7-23,7.3-1.8.6-2.4.2-3.3-1.6-5.1-11.6-10.3-23-15.5-34.4-2.9-6.6-5.8-13.3-8.8-19.8-.5-1.1-.4-1.7,1-2.3,5.8-2.7,5-2.4,7.2,2.4,6.1,13.1,12,26.3,18,39.5,1.6,3.4,3.2,6.8,4.7,10.3.7,1.7,1.7,1.9,3.4,1.3,6.6-2.2,13.3-4.1,19.8-6.2C266.39,902.12,267.09,901.42,267.79,902.42Z" transform="translate(-178.52 -639.16)"/><path class="cls-4" d="M267.29,849.82c.5-2.7,2.2-4.9,2.9-7.4,3.4-12-1.3-20.4-11.7-26.4-4.9-2.8-10.2-3.5-15.6-3.8-12.8-.7-24.6,2.7-36,7.9-2.1,1-4,2.3-6.3,2.9-.9-.9.1-1.1.6-1.3,12.9-7.5,26.6-12.7,41.9-12.7,8.3,0,16.3,1.2,22.9,6.7,7.2,5.8,10.1,13.1,7.7,22.1A29.12,29.12,0,0,1,267.29,849.82Z" transform="translate(-178.52 -639.16)"/><path class="cls-4" d="M381.29,879.32c1.1-2.8.4-5.7.5-8.5,0-1-1-.9-1.6-1a33.57,33.57,0,0,1-15.9-6.9,21.64,21.64,0,0,1-5.2-6.1,6.47,6.47,0,0,0-3.4-2.7c-5-1.9-9.9-3.9-14.8-5.8-3.3-1.3-3.4-1.3-.6-3.7a6.13,6.13,0,0,0,.6-.4c6.6,2.1,12.9,5,19.5,7.3.7.2,1.1.9,1.5,1.5,4.9,7.7,12,11.9,20.9,13.4,1.8.4,2.8.7,2.7,2.9-.2,3.8-.1,7.7-.1,11.9C383.69,880.52,382.59,879.92,381.29,879.32Z" transform="translate(-178.52 -639.16)"/><path class="cls-4" d="M539,854.12c-.6,1.3-1.7,2.9-2.9,2.7s-.9-2.1-1.1-3.3c-2.1-9.6-4.1-19.1-6.1-28.7-.5-2.2-1.2-3.3-3.8-3.7-5.7-.9-11.3-2.6-17.2-3.2.1-4,.1-3.9,3.9-3,5.7,1.2,11.3,2.3,17,3.3,1.7.2,2.3,1.1,2.7,2.7,2.2,10.6,4.5,21.2,6.8,31.8C538.59,853.12,538.59,853.72,539,854.12Z" transform="translate(-178.52 -639.16)"/><path class="cls-4" d="M538,899c2.8-8.3,5.5-16.5,8.3-24.8,4.7-14.1,9.5-28.2,14.2-42.3.6-1.8.6-2.8-1.8-3.2-4.3-.6-8.4-1.8-12.5-2.7.5-3.7.5-3.7,4-2.8,4,.9,7.9,1.8,11.9,2.6,1.8.4,2.2,1,1.6,2.7-7.3,21.4-14.5,43-21.7,64.4a48.43,48.43,0,0,0-1.7,5.4C539.79,899.72,539,899.62,538,899Z" transform="translate(-178.52 -639.16)"/><path class="cls-4" d="M312.29,872.22c-.6-1,.2-1.6.6-2.3,3.3-7.5,3.8-14.8-1.3-21.8a17.52,17.52,0,0,0-13.6-7.2,26.2,26.2,0,0,0-13.8,2.8,2.93,2.93,0,0,1-1.6.4c7.8-7.9,22.3-8.6,29.9-1.5C320.39,849.82,320.29,863.82,312.29,872.22Z" transform="translate(-178.52 -639.16)"/><path class="cls-4" d="M507.29,865.12a5.23,5.23,0,0,1,1.1-3c3.4-7.5,3.2-15-2.3-21.3-4.5-5.1-10.6-6.4-17.4-5.6-3.4.4-6.3,2.4-9.7,3.2,6.1-6.1,17.2-8.2,24.8-4.5,7.8,3.8,11.6,12.7,9,21.7A19.56,19.56,0,0,1,507.29,865.12Z" transform="translate(-178.52 -639.16)"/><path class="cls-4" d="M475.19,882.72c-2.9-1.9-6-3.4-8.4-6.1a23.44,23.44,0,0,1-6.1-14.5,27.82,27.82,0,0,1,6.4-19.6c.4-.5.6-1,1.3-.9a40.06,40.06,0,0,0-4.6,12.5,23.44,23.44,0,0,0,12.4,24.3c.7.4,1.6.5,1.8,1.3.2,1.1,1,2.4.1,3.2C477.49,883.62,476.09,883.12,475.19,882.72Z" transform="translate(-178.52 -639.16)"/><path class="cls-4" d="M468.49,841.72c-.7-4.9-1.5-9.7-2.2-14.6-.7-4.7-1.6-9.6-2.2-14.4-.5-3.4-.5-3.5-4.1-3.5h-5.7c-.6-2.2.1-3,2.4-2.9q4.2.15,8.4,0c1.2,0,1.7.5,1.8,1.6,1.5,9.4,2.8,18.7,4.4,28.1C471.79,838.62,469.79,839.82,468.49,841.72Z" transform="translate(-178.52 -639.16)"/><path class="cls-1" d="M402.79,795.82l-16.8,8.4a1.16,1.16,0,0,1-1.8-.4c-.5-.7-1-1.3-.1-2.2,4.1-4.7,8.3-9.6,12.3-14.4A83.52,83.52,0,0,1,402.79,795.82Z" transform="translate(-178.52 -639.16)"/><path class="cls-4" d="M450.19,830.32c.2,2.3-1.8,3-3.4,4.7-.7-3.7-1.3-6.9-1.9-10.2s-1.3-6.9-1.8-10.3c-.2-1.5-.9-1.8-2.2-1.8h-12.2c-.1-2.3.6-3.4,3.3-3.2a104.6,104.6,0,0,0,11.2,0c2.1-.1,2.8.6,3.2,2.4,1,5.5,1.9,10.8,2.9,16.3C449.39,829.12,449.39,830,450.19,830.32Z" transform="translate(-178.52 -639.16)"/><path class="cls-4" d="M409.79,825.62a23.51,23.51,0,0,0-17.2-9,32.37,32.37,0,0,0-17.3,3.3,3,3,0,0,1-2.1.5c4.6-4.4,10.5-6.2,16.5-6.9a26,26,0,0,1,20.9,6.4c2.4,2.2,2.4,2.2.2,4.5C410.69,824.92,410.29,825.22,409.79,825.62Z" transform="translate(-178.52 -639.16)"/><path class="cls-4" d="M257.69,898.72c-1-5.4-2.8-10.6-4.1-15.9-1.1-4.5-2.4-8.9-3.7-13.4-.9-3-.6-3.3,2.6-4.6,2.3,8.5,4.6,17.2,6.9,25.7.5,1.6.7,3.3,1.3,4.7.7,1.8.4,2.9-1.8,3.2C258.69,898.42,258.19,898.62,257.69,898.72Z" transform="translate(-178.52 -639.16)"/><path class="cls-4" d="M331.59,828.12a17.71,17.71,0,0,1-3,3.9c-.2-2.4-.6-4.5-.7-6.6-.2-4.5-.5-8.9-.5-13.4,0-1.9-.6-2.3-2.4-1.7-4.5,1.5-9.1,2.7-13.8,4-.7.2-1.6.2-2.3.4-.4-1.2-.1-1.8,1.2-2.2,6.2-1.7,12.4-3.5,18.5-5.4,1.5-.5,1.7.1,1.7,1.3C330.69,815,331.19,821.62,331.59,828.12Z" transform="translate(-178.52 -639.16)"/><path class="cls-4" d="M360,823.82c-1.1,0-1.6-.9-2.3-1.6-3.8-3.5-7.5-7.1-11.4-10.7a3.07,3.07,0,0,0-1.8-1.1c.2-1.3,1.6-1.9,2.1-3,.4-.7,1-.6,1.5,0q6.75,6.45,13.8,12.9c.6.6.7,1.1.1,1.7S360.79,823.22,360,823.82Z" transform="translate(-178.52 -639.16)"/><path class="cls-4" d="M330.69,882.42c0-6.6.2-13.3,0-19.8-.1-3,.7-5.4,3.3-6.9,0,7.8,0,15.6.1,23.4C334,882.12,334,882.12,330.69,882.42Z" transform="translate(-178.52 -639.16)"/><path class="cls-4" d="M517.89,885.32c1.3-7.7,2.7-15.3,4-23,.2-1.6.6-3,.7-4.6a7.6,7.6,0,0,1,3-5.4c.7-.5.7,0,.7.5-1.6,5.4-2.2,11-3.3,16.5-1,4.7-1.8,9.5-2.6,14.4C520.29,885.82,519.49,886.12,517.89,885.32Z" transform="translate(-178.52 -639.16)"/><path class="cls-3" d="M412.89,812.72c1.9-.9,3.5-2.1,3.5-4.4a2.39,2.39,0,0,1,1.5-2.2c1.6-.7,3.3-1.6,4.9-2.4-.5,5.5-1.6,10.7-2.6,16.8A45.73,45.73,0,0,0,412.89,812.72Z" transform="translate(-178.52 -639.16)"/><path class="cls-4" d="M415.69,850.92c-4-2.8-7.3-6.3-11.1-9.5,2.9-3.2,2.9-3.2,6.1-.4,2.1,1.8,4,3.8,6.2,5.5,1.9,1.5,1.6,2.4-.1,3.7A4.13,4.13,0,0,0,415.69,850.92Z" transform="translate(-178.52 -639.16)"/><path class="cls-4" d="M433.29,869.92c1-6.6,1.9-13.3,3-19.8.2-1.7,1.8-2.7,3.2-3.7-1.2,7.3-2.3,14.5-3.4,21.8C436,869.92,435.39,870.92,433.29,869.92Z" transform="translate(-178.52 -639.16)"/><path class="cls-3" d="M297.89,829a28.59,28.59,0,0,1,9.6-3.9c.9-.1,1.6-.1,1.7,1,.1,2.1.4,4.1.5,6.3.1,1.2-.2,1.8-1.6,1.3a19.09,19.09,0,0,0-4.1-1.1c-1.2-.2-1.2-1.2-1.2-1.9-.1-2.1-1.1-2.2-2.7-1.7C299.29,829,298.69,829.42,297.89,829Z" transform="translate(-178.52 -639.16)"/><path class="cls-4" d="M402.79,796.52a87.08,87.08,0,0,0-6.4-8.6c2.7-3.8,2.7-3.8,5.5-.1,1.3,1.7,2.6,3.5,4,5.2,1.1,1.2.9,1.9-.6,2.4A20.49,20.49,0,0,0,402.79,796.52Z" transform="translate(-178.52 -639.16)"/><path class="cls-3" d="M301.19,807.82c.1,0,.4-.1.5-.1a24.49,24.49,0,0,1,.7,7.2c0,1.3-.6,1.9-1.9,2.1a9.7,9.7,0,0,0-1.7.1c-3,.5-3,.5-3.2-2.6,0-1.2.1-2.6.1-3.8A41.36,41.36,0,0,0,301.19,807.82Z" transform="translate(-178.52 -639.16)"/><path class="cls-3" d="M366.69,807.92c.2-.1.5-.2.9-.4,1.8-.4,3.3-1.5,5-2.3,1.1-.5,1.8-.4,2.4.6,1,1.3,2.8,2.7,2.8,3.9,0,1.5-2.6,1.5-3.9,2.4a4.07,4.07,0,0,1-2.2,1C370.09,811.52,368.39,809.62,366.69,807.92Z" transform="translate(-178.52 -639.16)"/><path class="cls-3" d="M337.79,801.42c1.5-2.2,4-2.9,6.3-3.9a3.79,3.79,0,0,1-.7,2.4c-1.9,3.7-3.9,7.3-6.2,11.6A32.52,32.52,0,0,1,337.79,801.42Z" transform="translate(-178.52 -639.16)"/><path class="cls-3" d="M405.79,800.42c1.8,2.4,1.8,2.4-1,3.9-.6.4-1.2.7-1.7,1.1-1.2.6-2.6.7-3.3,2.1a20.65,20.65,0,0,0-4.9-1.2A95.83,95.83,0,0,1,405.79,800.42Z" transform="translate(-178.52 -639.16)"/><path class="cls-3" d="M419.29,826.72c-.5,2.8-.9,5.6-1.3,8.3-.2,1.5-.9,1.5-1.9.6-3.4-2.7-3.4-2.7-.4-5.7C416.79,828.82,418,827.82,419.29,826.72Z" transform="translate(-178.52 -639.16)"/><path class="cls-4" d="M448.59,864.42c1.8-2.9,2.7-6.3,4-9.5.6-1.5,1.3-2.8,3-3.3-1.6,5.1-3.8,9.9-5.7,15C449,866,448.89,865.12,448.59,864.42Z" transform="translate(-178.52 -639.16)"/><path class="cls-4" d="M401.49,843.62c-.6,2.2-2.7,2.6-4.3,3.4a19.08,19.08,0,0,1-7.1,1.8c-.4,0-.9,0-1.1-.2-.4-.4.1-.7.4-1,.7-.7,1.6-1.3,2.3-2.1C395.19,845.92,398.39,844.72,401.49,843.62Z" transform="translate(-178.52 -639.16)"/><path class="cls-3" d="M498.89,826.62c2.2-2.1,4.5-1.7,6.8-1.2,1.8.4,1.7,1.7,1.3,2.9-.5,1.5-1.5.4-2.1.1C503.19,827.52,501.09,827.22,498.89,826.62Z" transform="translate(-178.52 -639.16)"/><path class="cls-3" d="M352.29,840.92c1.9-1.8,3.9-3.7,6.1-5.6v6.3C356.29,841.42,354.29,840.72,352.29,840.92Z" transform="translate(-178.52 -639.16)"/><path class="cls-2" d="M242.59,832a20.37,20.37,0,0,1,6.4-1.8c9.1-1.1,15.2,6.4,12.2,15.1a17.52,17.52,0,0,1-5.7,7.7q-2.55,2-5.4,3.9c-1.9-6.1-4-12.2-5.8-18.3C243.59,836.42,242.59,834.42,242.59,832Zm11.8,13.5a6.28,6.28,0,0,0,2.1-6.8c-.7-2.4-2.9-3.2-5.2-3.5-.7-.1-1.8-.4-2.1.6s.5,1.3,1.5,1.7c2.8.9,3.7,2.2,3.8,5C254.39,843.62,254.39,844.62,254.39,845.52Z" transform="translate(-178.52 -639.16)"/><path class="cls-4" d="M242.59,830.72c-.1,2.3,1,4.4,1.6,6.4,1.9,6.1,3.9,12.2,5.8,18.3-1.9,1.9-2.4,1.9-3.3-.6q-3.3-10.05-6.3-20.1C239.89,832.52,240.59,831.32,242.59,830.72Z" transform="translate(-178.52 -639.16)"/><path class="cls-2" d="M300.69,892.92c2.4.1,3.5,2.4,5.2,3.5,1,.7-.1,3,.9,4.4-1.3,1-2.9.4-4.4.7-1,.2-1-.6-1.1-1.1C301,897.92,300.39,895.42,300.69,892.92Z" transform="translate(-178.52 -639.16)"/><path class="cls-2" d="M380.59,827.12c5.7-4.5,12-4.7,16.8-.7.7.6,1.5,1.1.5,2.2-5,5.5-10,11-14.8,16.5-.2.2-.6.2-.9.4C376,839.72,375.49,833.72,380.59,827.12Zm3.9,2.7a6.91,6.91,0,0,0-2.8,7.2c.4,1.1.9,1.9,2.1.6,2.2-2.6,4.4-5,6.6-7.5a2.8,2.8,0,0,0,1.5-1.7c.1-.4-.4-.5-.6-.5C388.79,828,386.29,827.72,384.49,829.82Z" transform="translate(-178.52 -639.16)"/><path class="cls-4" d="M380.59,827.32c-5.1,6.6-4.6,12.5,1.5,18.4-3.5,1.2-3.8,1.1-5.5-2.3-2.9-5.8-1.6-10.8,2.4-15.6C379.39,827.22,379.89,826.82,380.59,827.32Z" transform="translate(-178.52 -639.16)"/><path class="cls-2" d="M287.89,847a12.45,12.45,0,0,1,10.6-3.8c-2.2.9-3.9,1.7-4.9,3.5a5,5,0,0,0,.1,5.4c1.8,3.2,6.1,4.1,9.9,2.3,2.7-1,2.8-3.5,3.8-5.6,2.1,5.4,1.2,8.9-3.3,13.1a1.33,1.33,0,0,0-.6.5h0c-.2.1-.6.1-.9.2-4.9,2.2-9.5,1.8-13.5-1.8s-4.1-7.9-2.2-12.5h0c.4-.1.5-.5.6-.9h0C287.59,847.42,287.79,847.12,287.89,847Z" transform="translate(-178.52 -639.16)"/><path class="cls-4" d="M286.89,848.52c-1.9,4.6-1.7,9,2.2,12.5s8.6,4,13.5,1.8c.2-.1.6-.1.9-.2-2.6,4.4-11,6.7-16.4,2.4s-6.1-10.7-1.5-15.8A1.36,1.36,0,0,1,286.89,848.52Z" transform="translate(-178.52 -639.16)"/><path class="cls-4" d="M308.09,848.12c-1.1,2.1-1.2,4.6-3.8,5.6,0-2.2-.4-4.4,2.1-5.8C307.09,847.42,307.59,847,308.09,848.12Z" transform="translate(-178.52 -639.16)"/><path class="cls-2" d="M489.59,840.82c-1.2,2.8-.7,5,1.3,6.8,2.3,2.1,5.6,2.3,8.6.7,2.6-.9,2.7-3.4,3.8-5.2,2.1,5,.6,9.1-3.4,12.7a1.33,1.33,0,0,0-.6.5h0a1,1,0,0,0-1,.6h0c-2.8.9-5.5,1.5-8.4.9-6.4-1.5-9.2-6.3-8.3-13.9h0c.5-.2.5-.6.5-1h0a2.09,2.09,0,0,1,.4-.6,12.38,12.38,0,0,1,11.6-5.1C492.69,838.12,490.49,838.62,489.59,840.82Z" transform="translate(-178.52 -639.16)"/><path class="cls-4" d="M481.89,843.82c-1.1,7.5,1.8,12.4,8.3,13.9,2.9.7,5.7,0,8.4-.9a1.49,1.49,0,0,1-.2.9c-3.5,2.8-7.3,4.3-11.9,2.9-4.1-1.2-6.9-3.8-7.9-8-.7-3,.4-5.8,2.1-8.4A1.59,1.59,0,0,1,481.89,843.82Z" transform="translate(-178.52 -639.16)"/><path class="cls-4" d="M502.39,842.72c-1,1.8-1.1,4.1-3.5,4.9a5,5,0,0,1,2.3-5.2C501.79,842,502.19,842,502.39,842.72Z" transform="translate(-178.52 -639.16)"/><path class="cls-4" d="M489.59,840.72c.7-2.1,2.8-2.4,4.3-3.5,1.1,0,.9.5.4,1.1A6.55,6.55,0,0,1,489.59,840.72Z" transform="translate(-178.52 -639.16)"/><path class="cls-2" d="M307.19,884.92c1.3,2.6.6,5.5,1.2,8.3.1.5-.4,1.3-1.2.5a7.38,7.38,0,0,0-5.6-2.2c-.5,0-1-.1-1.1-.7s.2-1.1.9-1.6c1.9-1.4,4.1-2.5,5.8-4.3Z" transform="translate(-178.52 -639.16)"/><path class="cls-3" d="M547.59,791.92c-13.7-1.4-27.5-2.5-41.3-3.6a3.26,3.26,0,0,1-1.2-.2c-.7-1.9-2.1-.6-3.2-.9-.3-.1-.9-.2-.4.6.3.5-.7.7-.7.5-.8-1.6-2.8-1-3.8-2,0-3.2-1.2-6.3-1.2-9.5,1.6.7,3.5.7,4.6,2.5.7,1.1,1.8.2,2.7.1.7,0,.2-1.1.2-1.6-.4-3-.9-6-1.4-9.1-.9-5.7-1.9-11.4-2.8-17.2.2-1.2,1.6-1.1,2.2-1.9,1.7-.7,3.2-2,5.1-2.6,1.1,2.9,1.1,6.1,1.6,9.2,1.4,8.7,2.7,17.5,4,26.3.2,1.1.6,1.6,1.7,1.6,13.5,1.1,27,2.2,40.5,3.4.2,0,.5.2.7.2A40.66,40.66,0,0,1,547.59,791.92Z" transform="translate(-178.52 -639.16)"/><path class="cls-3" d="M506.19,647.22a4,4,0,0,0,.2,2.4c1.1,5.9,2.1,11.8,3.3,17.7.2,1.1-.1,1.1-1,.9-2.2-.5-4.3-1.4-6.5-1.6-.9-.1-.7-.9-.8-1.5-.8-3.8-1.6-7.7-2.3-11.5a6,6,0,0,0-.6-1.9A18.07,18.07,0,0,1,506.19,647.22Z" transform="translate(-178.52 -639.16)"/><path class="cls-3" d="M503.79,739.92c1.9-4.7,3.9-9.4,5.6-14.2,1.3-3.5,2.9-7,4-10.6a9.46,9.46,0,0,1,6-6.7,14.92,14.92,0,0,0,2.4-1.4c-1.6,3.9-3,7.9-4.6,11.9-1.3,3.4-2.6,6.8-4,10.1-1.8,4.4-3.2,9-5.2,13.3-.6-.5-1.5-.6-1.5-1.6,0-.6-.5-.7-.7,0h0c-.7-1.1-1.6.1-2.3-.2A.71.71,0,0,0,503.79,739.92Z" transform="translate(-178.52 -639.16)"/><path class="cls-3" d="M546,683.52c.4-1.5.8-2.9,1.2-4.4.3-1.2,1-1.6,2.3-1.3,3.8.9,7.3,2.5,11,3.4a1.34,1.34,0,0,1,1.1,1.5V686c-.1,3.8,0,3.8-3.6,5.1-1.3.4-2.5,1.2-3.8,1.1,0-1.6-.1-3.2,0-4.7a1.68,1.68,0,0,0-1.3-1.9C550.49,684.82,548.19,684.22,546,683.52Z" transform="translate(-178.52 -639.16)"/><path class="cls-3" d="M520.89,698c-6.8-2.1-13.6-4.3-20.3-6.4.2-2,1.7-.7,2.6-1,.7-.2,1.6.7,2-.7.2-.7,1.4.1,2.1.1.1-.2.2-.3.1-.4-.3-.5-1.6-.5-1.1-1.4.4-.7,1.2-.7,2-.4a24.15,24.15,0,0,1,3.5,1.2,10.82,10.82,0,0,0,4,1.1c3.5.7,6.7,2.1,10.1,3.2-.9.7-1.7,1.4-2.6,2.1-.3-.7.2-.9.3-1.2s-.2-.9-.4-.7c-.7.7-1.5,1.5-1.5,2.3,0,1.2,1.1-.2,1.6.4-.6.7-.8,1.7-1.6,2.4-.2-.1-.3-.1-.5-.2A1.38,1.38,0,0,0,520.89,698Zm0-3c-.2.1-.5-.2-.6.2a.35.35,0,0,0,.1.2c.5,0,.5-.3.5-.4s.1-.1,0,0Z" transform="translate(-178.52 -639.16)"/><path class="cls-2" d="M506,646.32a84.8,84.8,0,0,0,8.7-2.1,2.77,2.77,0,0,0,.9-.1c6.7-1.6,13.4-3,20.1-4.7a6.07,6.07,0,0,1,5.1.7,20,20,0,0,0,2.9,1.5c4.7,2.4,9.6,4.7,14.3,7.1,13.4,6.8,26.9,13.6,40.3,20.4,1.3.7,1.9,1.3,1.5,2.8-.6,2.6-.9,5.3-1.3,7.9-1.3,7.8-2.6,15.8-3.8,23.6-.2,1.4-.5,2.8-.7,4.2s-1.7,1.4-2.5,2.3c-2.6,1.3-5.1,2.8-7.6,4.3a.59.59,0,0,0-.9.3,2.43,2.43,0,0,0-1.4,1c-.6-.5-1.1-.1-1.6.2-6.6,2.9-13.2,6-19.8,8.9a2.18,2.18,0,0,0-1.4,1.7c0,.1-.1.2-.1.3a14.46,14.46,0,0,0-.9,2.2c-1.5,6.3-3.7,12.3-5.4,18.5-.8,2.9-1.2,6-4.4,8.3,3.4-.2,3.4,1.7,3.7,3.8.7,5.6,1.4,11,2.1,16.6a46.18,46.18,0,0,0,.8,6.5c-.2,1.7.7,3.4.2,5.1a1.85,1.85,0,0,0-.7-.2c-13.5-1.1-27-2.3-40.5-3.4-1.1-.1-1.6-.5-1.7-1.6-1.3-8.7-2.6-17.6-4-26.3-.5-3-.6-6.2-1.6-9.2.7-.6,1.3-.2,1.9-.1,3.6.7,7.2,1.5,10.8,2.2-3.5-1.4-7-2.7-10.6-3.9-2.5-.9-2.5-.8-1.4-3.2,2-4.3,3.4-8.9,5.2-13.4,1.4-3.4,2.7-6.8,4-10.1,1.6-3.9,3-7.9,4.6-11.9.8-1.3,2.5-1.3,3.4-2.5h0c.2,0,.4-.1.4-.3,2.6-1.1,5.3-2.4,7.9-3.5,4.9-1.7,9.8-3.4,14.6-5.5A58,58,0,0,0,554,692c1.4.1,2.6-.7,3.8-1.1,3.6-1.2,3.5-1.2,3.6-5.1v-3.3a1.32,1.32,0,0,0-1.1-1.5c-3.8-.9-7.3-2.5-11-3.4-1.4-.3-2,.1-2.3,1.3-.4,1.5-.8,2.9-1.2,4.4-.5,1.9-1,3.7-1.5,5.6-.6.5-.6,1.1-.8,1.8a3,3,0,0,1-1.4,2.2c-2.1,1.1-4.3,2.4-6.4,3.6l-9.6-3a1.37,1.37,0,0,0-1.3-.6c-.2-.1-.4-.1-.6-.2-3.4-1.1-6.6-2.5-10.1-3.2a10.82,10.82,0,0,1-4-1.1,14.49,14.49,0,0,0-3.5-1.2c-.7-.2-1.6-.3-2,.4-.5.9.7.9,1.1,1.4.1.1-.1.2-.1.4-.7,0-2-.8-2.1-.1-.4,1.6-1.2.6-2,.7s-2.4-1-2.6,1h-.5c-1.3-.3-2.9-.5-2-2.5.1-.3-.1-.7-.2-1.1-1.9-10.1-3.8-20.2-5.9-30.2-.4-1.9-.2-2.9,1.5-3.7s3.3-1.6,4.9-2.5a3.29,3.29,0,0,1,.6,1.9c.8,3.8,1.6,7.7,2.3,11.5.1.6-.1,1.4.8,1.5,2.3.2,4.3,1.1,6.5,1.6.9.2,1.2.2,1-.9l-3.3-17.7a4.92,4.92,0,0,1-.2-2.4A3.44,3.44,0,0,0,506,646.32Zm60.7,49.3h0a.62.62,0,0,0-.7.2h-.6c-10.1,3.4-20.3,6.9-30.3,10.3-.9.3-1.4.7-1.5,1.6-.8,2-1.6,3.9-2.5,5.9-2.9,7.2-5.7,14.5-8.6,21.7-.2.6-.7,1.1.4,1.6,6.5,2.3,12.8,4.7,19.3,6.9,1,.4,2,.7,2.9,1.1s1.3.2,1.6-.7c2.4-8.1,4.7-16.2,7.2-24.3,1.9-.8,3.7-1.7,5.6-2.5,7.7-3.4,15.4-6.6,23-10,1.1-.5,2.3-1,3.4-1.4a3.09,3.09,0,0,0,2.3-2.9c.5-3.6,1.1-7.1,1.6-10.7,1-6.4,2-12.8,3.1-19.2a1.67,1.67,0,0,0-1.1-2.2q-27-13.2-53.9-26.6c-.5-.2-.8-.6-1.5-.4-8.3,2-16.8,4-25.1,5.9-1.5.3-1.4,1.1-.8,2,2.1,8.4,4.3,16.8,6.4,25.3a1.53,1.53,0,0,0,1.1,1.1l17.4,4.8c1.2.3,2.4.7,3.6,1.1.7.2,1.1,0,1.2-.7,1.1-4.3,2.5-8.6,3.3-13a1.74,1.74,0,0,1,1.4-.1l21.3,5.4c1,.2,1.2.7,1.3,1.6.3,4.9.7,9.7,1.1,14.6.2,1.6-.1,2.5-1.7,2.9C567,695.52,566.89,695.62,566.69,695.62Zm-24.5,85.1a33.21,33.21,0,0,1,4.4.6c1.5.4,1.6-.2,1.5-1.5-.7-5.5-1.4-11-1.9-16.4a2.29,2.29,0,0,0-2-2.3c-8.8-2-17.6-4-26.3-5.9-1.4-.3-3.3-1.6-4.1-.6s.2,2.9.5,4.3c1,6,2,12,3,18.1.2,1.1.7,1.2,1.6,1.3C526.69,779.22,534.39,780,542.19,780.72Z" transform="translate(-178.52 -639.16)"/><path class="cls-1" d="M585,708.32c-7.7,3.4-15.4,6.6-23,10-1.9.8-3.7,1.6-5.6,2.5-1.5.8-3,1.6-4.5,2.5a2,2,0,0,0-1.1,1.4c-2,6.7-4.1,13.3-6.1,20-6.5-2.3-12.8-4.7-19.3-6.9-1.1-.4-.7-1-.4-1.6,2.9-7.2,5.7-14.5,8.6-21.7.8-2,1.6-3.9,2.5-5.9.2-.1.5-.1.7-.2,9.2-3.1,18.3-6.2,27.5-9.3,1.6-.5,3.2-1,4.2-2.5h0c.3.1.7.1.8-.2h0c.2-.1.3-.2.5-.2,1.6-.4,1.9-1.3,1.7-2.9-.5-4.8-.8-9.7-1.1-14.6-.1-1-.3-1.4-1.3-1.6l-21.3-5.4a1.69,1.69,0,0,0-1.4.1c-1.2.7-2.4,1.3-3.6,1.9a4.37,4.37,0,0,0-2.5,3.1c-.6,2.5-1.3,5.1-2,7.6l-17.4-4.8c-.6-.2-1-.4-1.1-1.1-2.1-8.4-4.3-16.8-6.4-25.3,6.6-1.6,13.2-3.1,19.9-4.7a3.62,3.62,0,0,1,2.5.2c2.7,1.4,5.4,2.7,8.1,4.1,15,7.4,29.8,14.8,44.8,22.1,1.7.8,1.9,1.8,1.6,3.4-.6,2.9-1.1,5.9-1.6,8.8C587.19,694,586.19,701.12,585,708.32Z" transform="translate(-178.52 -639.16)"/><path class="cls-4" d="M583.09,707.82c1.1-7.1,2.2-14.3,3.4-21.4.5-2.9,1-5.9,1.6-8.8.2-1.6.1-2.5-1.6-3.4-15-7.3-29.8-14.7-44.8-22.1-2.7-1.3-5.5-2.7-8.1-4.1a3.1,3.1,0,0,0-2.5-.2c-6.6,1.6-13.2,3.1-19.9,4.7-.6-1.1-.7-1.7.8-2,8.4-1.9,16.8-3.9,25.1-5.9.7-.2,1,.2,1.5.4,18,8.9,36,17.7,53.9,26.6a1.84,1.84,0,0,1,1.1,2.2c-1.1,6.4-2,12.8-3.1,19.2-.6,3.6-1.2,7.1-1.6,10.7a3,3,0,0,1-2.3,2.9A16.13,16.13,0,0,0,583.09,707.82Z" transform="translate(-178.52 -639.16)"/><path class="cls-1" d="M543.79,780.62l-23.3-2.4c-.9-.1-1.5-.3-1.6-1.3-1-6-2-12-3-18.1a1.8,1.8,0,0,1,1.6,0c5.4,1.3,10.7,2.6,16.1,3.8a11.27,11.27,0,0,0,1.8.3c2.2.3,4.7.5,6.4,1.8,1.2,1,.7,3.2.9,4.9,0,.2.1.3.1.6C543,773.72,543.69,777.12,543.79,780.62Z" transform="translate(-178.52 -639.16)"/><path class="cls-4" d="M542.69,780.92c-.1-3.5-.7-6.9-1.1-10.4,0-.2-.1-.3-.1-.6-.2-1.6.3-3.9-.9-4.9-1.7-1.3-4.2-1.5-6.4-1.8l-1.8-.3c-5.4-1.3-10.7-2.6-16.1-3.8a1.8,1.8,0,0,0-1.6,0c-.4-1.5-1.3-3.4-.5-4.3s2.7.3,4.1.6c8.8,2,17.6,4,26.3,5.9a2.14,2.14,0,0,1,2,2.3c.6,5.5,1.2,11,1.9,16.4.2,1.3,0,1.8-1.5,1.5A20.26,20.26,0,0,0,542.69,780.92Z" transform="translate(-178.52 -639.16)"/><path class="cls-4" d="M544.09,744.42c2-6.7,4.1-13.3,6.1-20a2,2,0,0,1,1.1-1.4c1.6-.8,3-1.6,4.5-2.5l-7.2,24.3c-.3,1-.7,1.1-1.6.7S545.09,744.82,544.09,744.42Z" transform="translate(-178.52 -639.16)"/><path class="cls-4" d="M536.69,683.82c.7-2.5,1.5-5,2-7.6a3.84,3.84,0,0,1,2.5-3.1c1.2-.6,2.4-1.2,3.6-1.9-.8,4.4-2.2,8.7-3.3,13-.2.7-.6.9-1.2.7A24.73,24.73,0,0,0,536.69,683.82Z" transform="translate(-178.52 -639.16)"/><path class="cls-4" d="M568.49,696.62c-.9,1.6-2.6,2-4.2,2.5-9.2,3.2-18.3,6.2-27.5,9.3-.2.1-.5.1-.7.2a1.71,1.71,0,0,1,1.5-1.6c10.1-3.4,20.3-6.9,30.3-10.3C568.09,696.52,568.39,696.62,568.49,696.62Z" transform="translate(-178.52 -639.16)"/></g></svg>