<svg id="botao-reset" xmlns="http://www.w3.org/2000/svg" viewBox="0 0 292.82 99.87"><defs><style>.cls-1{fill:#c4c4c4;}.cls-2{fill:#fcfcfc;}.cls-3{fill:#333232;}.cls-4{fill:#dc3d2b;}</style></defs><title>reset</title><path class="cls-1" d="M516.86,280.71H418.78c-15.93,0-25.14-5.49-25.48-15.62-.42-11.85-.38-23.71,0-35.56.3-10.28,9.26-15.89,25-15.9q98.61-.07,197.24,0c16,0,24.57,5.53,24.76,16,.21,11.85.25,23.66,0,35.56-.22,9.95-9,15.5-24.27,15.56Q566.47,280.79,516.86,280.71Z" transform="translate(-383.59 -196.44)"/><path class="cls-2" d="M445.87,214.76c-38.56,3-46.4,20-53.92,42.5-2.28,6.8-11-24.13,2.26-37.5C407.79,206,425.69,204.51,445.87,214.76Z" transform="translate(-383.59 -196.44)"/><path class="cls-3" d="M640.33,265.14c-.22,9.95-9,15.5-24.27,15.56q-49.59.09-99.2,0H418.78c-15.93,0-25.14-5.49-25.48-15.62-.42-11.85-.38-23.71,0-35.56.3-10.28,9.26-15.89,25-15.9q98.61-.07,197.24,0c16,0,24.57,5.53,24.76,16C640.54,241.43,640.58,253.24,640.33,265.14Zm9.4-39.52c-.21-12.77-9.42-19.55-26.65-19.55q-106.12-.09-212.24,0c-17,0-26.6,6.89-26.93,19.49-.41,14.52-.45,29.06,0,43.58.37,12.42,10.27,19.14,27.42,19.14H516.87c35.56,0,71.17.06,106.74,0,16.45-.07,25.89-6.88,26.12-19.07C650,254.62,650,240.14,649.73,225.62Z" transform="translate(-383.59 -196.44)"/><path class="cls-3" d="M484.18,263.41v.45h4.15c1.51,0,3,.07,4.54-.09,4-.41,6.13-2.64,6.35-6.64a44.46,44.46,0,0,0,0-5.29c-.27-4.11-2.62-6.43-6.79-6.61-2.77-.12-5.55,0-8.32,0-2.17,0-3.66-.66-3.7-3.21s1.5-3.17,3.67-3.15c3.53,0,7.07-.1,10.6,0,2.43.11,2.23-1.39,2.15-2.93s.59-3.15-2-3.09c-5.17.11-10.35-.12-15.52.11-4.06.17-6.2,2.4-6.61,6.42a28.93,28.93,0,0,0,0,5.66c.41,4,2.58,6.16,6.61,6.42,2.89.18,5.8.08,8.7.06,1.9,0,3.76-.43,3.58,2.72-.16,2.87-1.38,3.8-4,3.65-3.65-.2-7.3-.44-10.95-.47-1.55,0-3.79-1.32-3.93,2.17-.13,3.17,1.13,3.94,3.87,3.83C479.13,263.33,481.65,263.41,484.18,263.41Zm-26.87.12c4,0,7.26-.17,10.53.05,2.5.17,2.53-1.11,2.51-3s.16-3.4-2.64-3.22c-3.9.26-7.82.09-11.73,0-.77,0-1.71.46-2.21-.79-1.27-3.22.36-5.67,3.88-5.68,2.4,0,4.8,0,7.19,0,1.21,0,1.71-.29,1.86-1.64.47-4.22.18-4.62-4.22-4.62-2.14,0-4.3-.16-6.43,0-2.3.22-2.44-1-2.29-2.71.13-1.5-.64-3.38,2.2-3.25,3.9.18,7.83-.13,11.73.1,2.76.17,2.58-1.36,2.67-3.25.1-2.12-.54-2.86-2.74-2.81-6.3.14-12.62.17-18.92,0-2.47-.07-2.94.84-2.88,3,.14,5.17,0,10.35.05,15.52,0,3.91-1.45,9.2.52,11.36C448.63,265.24,454,263.23,457.31,263.53Z" transform="translate(-383.59 -196.44)"/><path class="cls-3" d="M441.08,263.53a53.86,53.86,0,0,0-5.54,0c-2,.21-3-.68-3.74-2.34-.68-1.48-1.78-2.79-2.29-4.32-1.22-3.61-4.13-2.49-6.61-2.56-1.13,0-.94.93-1,1.64a20.61,20.61,0,0,0,0,3.77c.54,3.21-.78,3.81-3.84,3.91-3.65.13-4.26-1.16-4.17-4.41.22-7.81.16-15.63,0-23.44,0-2.31.57-3.06,2.94-3,5.42.18,10.84,0,16.26.08s7.59,2.19,7.94,7.49a55.84,55.84,0,0,1-.16,7.54c-.08,1.1-.27,2.72-1,3.14-5.49,3.27-1.59,6.33,0,9.5C440.39,261.44,441.28,262.13,441.08,263.53Zm-13.73-24.71c-1.25,0-2.51,0-3.77,0-1,0-1.48.32-1.69,1.46-1.28,6.62-.18,8,6.46,8,4.68,0,5-.32,5-4.85S433.18,238.82,427.35,238.82Z" transform="translate(-383.59 -196.44)"/><path class="cls-3" d="M484.18,263.41c-2.53,0-5.05-.08-7.57,0-2.74.11-4-.66-3.87-3.83.14-3.49,2.38-2.18,3.93-2.17,3.65,0,7.3.27,10.95.47,2.61.15,3.83-.78,4-3.65.18-3.15-1.68-2.72-3.58-2.72-2.9,0-5.81.12-8.7-.06-4-.26-6.2-2.38-6.61-6.42a28.93,28.93,0,0,1,0-5.66c.41-4,2.55-6.25,6.61-6.42,5.17-.23,10.35,0,15.52-.11,2.58-.06,1.93,1.69,2,3.09s.28,3-2.15,2.93c-3.53-.14-7.07,0-10.6,0-2.17,0-3.7.54-3.67,3.15s1.53,3.21,3.7,3.21c2.77,0,5.55-.09,8.32,0,4.17.18,6.52,2.5,6.79,6.61a44.46,44.46,0,0,1,0,5.29c-.22,4-2.35,6.23-6.35,6.64-1.5.16-3,.08-4.54.09h-4.15Z" transform="translate(-383.59 -196.44)"/><path class="cls-3" d="M457.31,263.53c-3.31-.3-8.68,1.71-10.92-.77-2-2.16-.51-7.45-.52-11.36,0-5.17.09-10.35-.05-15.52-.06-2.21.41-3.12,2.88-3,6.3.18,12.62.15,18.92,0,2.2-.05,2.84.69,2.74,2.81-.09,1.89.09,3.42-2.67,3.25-3.9-.23-7.83.08-11.73-.1-2.84-.13-2.07,1.75-2.2,3.25-.15,1.7,0,2.93,2.29,2.71,2.13-.2,4.29,0,6.43,0,4.4,0,4.69.4,4.22,4.62-.15,1.35-.65,1.67-1.86,1.64-2.39,0-4.79,0-7.19,0-3.52,0-5.15,2.46-3.88,5.68.5,1.25,1.44.78,2.21.79,3.91.05,7.83.22,11.73,0,2.8-.18,2.61,1.34,2.64,3.22s0,3.13-2.51,3C464.57,263.36,461.28,263.53,457.31,263.53Z" transform="translate(-383.59 -196.44)"/><path class="cls-3" d="M529.46,238.69c-4.29,0-10.72.29-15,.1-2.46-.11-3.19.6-3.19,3.12s.73,3,3,2.85,4.82.19,7.18-.1c3-.38,2.74,1.39,2.86,3.39.14,2.24-.39,3.23-2.86,3-2.12-.23-4.3.14-6.42-.1-2.95-.33-3.9.66-3.76,3.68.1,2.26.51,3.07,2.92,2.93,3.77-.23,7.57.1,11.34-.12,2.62-.15,2.44,1.33,2.4,3s.37,3.2-2.33,3.13c-6.68-.18-13.37-.11-20.05,0-1.67,0-2.13-.53-2.11-2.15.06-8.7.09-17.41,0-26.11,0-2.14.88-2.46,2.7-2.44,7.06.08,15.6.2,22.67.21C529.36,235,530,236.72,529.46,238.69Z" transform="translate(-383.59 -196.44)"/><path class="cls-3" d="M528.79,233.07c7.92-.06,15.85,0,23.78-.22,2.65-.07,2.32,1.5,2.34,3.15s.13,2.79-2.22,2.91c-7.09.34-7.08.47-7.08,7.75,0,4.79-.19,9.58.06,14.35.2,3.7-2.33,2.44-4,2.46s-4.11,1.16-4-2.49c.25-6.29-.07-12.59.13-18.88.09-2.72-.79-3.55-3.4-3.31a44.34,44.34,0,0,1-5.64-.13Z" transform="translate(-383.59 -196.44)"/><path class="cls-3" d="M622,296.31c-30.41,0-54.13-21.69-54.28-49.69-.15-27.43,24.48-50.29,54.17-50.18s54.21,22.59,54.49,50.12C676.69,273.75,652.08,296.25,622,296.31Z" transform="translate(-383.59 -196.44)"/><path class="cls-4" d="M583.22,247c0,10.1,4.84,20.43,12.86,26.28,6,4.36,13.84,5.65,22.08,5.65,19.29,0,34.93-14.3,34.93-31.93S637.45,215,618.16,215,583.22,229.32,583.22,247Z" transform="translate(-383.59 -196.44)"/><path class="cls-2" d="M644.33,225.19c-29.9-10.76-62.14,9.91-50.6,46.41-15.07-15.29-15.33-34.42-.63-47.79C608.13,210.06,628.89,210.63,644.33,225.19Z" transform="translate(-383.59 -196.44)"/><path class="cls-3" d="M634.17,245.28" transform="translate(-383.59 -196.44)"/><path class="cls-3" d="M615,260.53c2.86-.15,5.38,1,8.14.37a14.11,14.11,0,1,0-15.64-20.45c-.34.64-.25.81.44,1,3.29.78,11.33-.84,9.31,2.94s-12.52,12.43-18.44,11.15-14.08-16.39-11.78-19.25,6.39,1.55,9.58,2.37c.6.15.83,0,1.06-.54a23.88,23.88,0,0,1,23.71-14.95c12.73.55,23.15,12,22.59,24.8a24.06,24.06,0,0,1-24.58,23.24c-2.3,0-2.22.15-6.74-1.17S607.53,260.53,615,260.53Zm-1.29-16.08c-1.74-.43-3.58-.55-5.3-1-.92-.23-1.72-.76-2.64-1-.58-.13-.63-1.3-.39-2,3-8.23,12.34-11.24,20.69-7.83a15.69,15.69,0,0,1-9.06,29.86c-.73-.13-2.56.45-2.7,1.12-.36,1.65.87,2.88.42,4.51-.16.6-.06.82.58.95a21.44,21.44,0,0,0,12.6-1c8.16-3.31,13.11-9.36,14.24-18.08,1.15-8.89-2.12-16.2-9.45-21.33A22.37,22.37,0,0,0,598.68,240c-.19.55-.37.68-.93.53-1.91-.51-3.84-1-5.76-1.44l-2.43-.59a2.59,2.59,0,0,0,.09.33c1.52,2.52,6.66,4.84,11.88,6.09,4.74,1.13,9.56,1.35,11.79,0C613.47,244.82,613.69,244.8,613.75,244.45Zm-26.15-1.56" transform="translate(-383.59 -196.44)"/><path class="cls-3" d="M599.93,252.21c-7.6-2.59-11.63-11.65-10.73-14.14s4.56.92,7.44,1.92c1.29.44,2,.17,2,0a22.37,22.37,0,0,1,34.06-11.27c7.33,5.13,10.6,12.44,9.45,21.33-1.13,8.72-6.08,14.77-14.24,18.08a21.48,21.48,0,0,1-7.6,1.51,37.37,37.37,0,0,1-5-.5c-2.76-.3-4.05-2.28-3.8-3.47s.11-2.44,2.77-2.9c1.52-.26,8.36.64,12.93-1.71a13.39,13.39,0,0,0,3.2-2.32,17.21,17.21,0,0,0,3.79-5.06,15.75,15.75,0,0,0-8.13-21,19.09,19.09,0,0,0-12.17-.17c-5.64,2-7.91,5.65-8.27,7.55-.9,4.88,8.76,2.6,8.37,4.64C613.39,248.07,602.69,253.15,599.93,252.21Z" transform="translate(-383.59 -196.44)"/><path class="cls-3" d="M589.56,238.49" transform="translate(-383.59 -196.44)"/></svg>