<svg id="tela2" xmlns="http://www.w3.org/2000/svg" viewBox="0 0 594.09 654.43"><defs><style>.cls-1{fill:#333232;}.cls-2{fill:#c4c4c4;}</style></defs><title>tela2</title><path class="cls-1" d="M1479.58,654.62v-51.1c.29-3.34.44-6.71.45-10.07q.12-111.41,0-222.75c0-42.28-20.81-70.91-51.46-70.91H937.76c-4.43,0-8.82,0-13.22,1.63-23.93,8.64-38.43,34.89-38.49,70.65q-.1,82.68,0,165.37V881.05c0,44.91,20.92,73.16,54.09,73.17h489c29.91,0,50.83-28.8,50.88-69.61q.12-109.85,0-219.68Q1480,659.76,1479.58,654.62Zm-21.77,7.57q.12,101.92,0,203.83c0,37.87-19.4,64.59-47.07,64.59H958.31c-30.69,0-50-26.22-50-67.89V543.9q-.1-76.71,0-153.44c.05-33.18,13.47-57.53,35.61-65.55,4.07-1.51,8.13-1.51,12.23-1.51H1410.2c28.36,0,47.61,26.56,47.61,65.8q.12,103.31,0,206.67c0,3.12-.14,6.25-.41,9.35v47.41C1457.67,655.8,1457.81,659,1457.81,662.19Z" transform="translate(-886 -299.79)"/><path class="cls-2" d="M1470.71,653.8V604.23q.42-4.87.43-9.78.12-108.06,0-216.08c0-41-20.18-68.79-49.92-68.79H945.1c-4.3,0-8.56,0-12.82,1.58C909.07,319.54,895,345,894.94,379.7q-.11,80.21,0,160.42V873.45c0,43.56,20.29,71,52.47,71h474.38c29,0,49.3-27.93,49.35-67.53q.12-106.54,0-213.1C1471.14,660.45,1471,657.11,1470.71,653.8Zm-18.27,7.61q.12,99.63,0,199.27c0,37-19,63.15-46.15,63.15H962.71c-30.1,0-49.07-25.64-49.07-66.38V545.76q-.09-75,0-150c.05-32.44,13.21-56.25,34.91-64.09,4-1.47,8-1.47,12-1.47h445.21c27.81,0,46.68,26,46.68,64.32q.12,101,0,202,0,4.59-.4,9.15v46.35Q1452.45,656.71,1452.44,661.41Z" transform="translate(-886 -299.79)"/><path class="cls-1" d="M1459.93,653.53V605.46c.27-3.15.41-6.32.42-9.49q.12-104.8,0-209.58c0-39.79-19.48-66.72-48.18-66.72H952.68c-4.14,0-8.25,0-12.37,1.53-22.4,8.13-36,32.83-36,66.48q-.09,77.79,0,155.6V866.59c0,42.25,19.59,68.83,50.65,68.84h457.8c28,0,47.58-27.09,47.63-65.5q.12-103.35,0-206.7C1460.35,660,1460.21,656.75,1459.93,653.53Zm-8.92,8.41q.1,99.59,0,199.18c0,37-18.92,63.11-45.91,63.11H964c-29.93,0-48.8-25.62-48.8-66.34V546.34q-.09-75,0-149.94c.05-32.43,13.14-56.22,34.72-64.06,4-1.47,7.93-1.47,11.93-1.47h442.78c27.66,0,46.43,25.95,46.43,64.29q.1,101,0,202,0,4.59-.41,9.14v46.33C1450.87,655.69,1451,658.81,1451,661.94Z" transform="translate(-886 -299.79)"/></svg>