<svg id="tela" xmlns="http://www.w3.org/2000/svg" viewBox="0 0 601.95 678.21"><defs><style>.cls-1{fill:#c4c4c4;}.cls-2{fill:#424242;}.cls-3{fill:#333232;}.cls-4{fill:#d8fcfb;}</style></defs><title>tela1</title><path class="cls-1" d="M360.64,337.85" transform="translate(-57.26 -299.49)"/><path class="cls-2" d="M383,340c-4.87-.66-7.94-3.14-7.91-8.28s2.34-8.07,7.7-8.18c5.06-.12,8.44,2.28,8.7,7.28C391.78,336.29,388.36,339.21,383,340Z" transform="translate(-57.26 -299.49)"/><path class="cls-2" d="M337.26,331.41c-.32,5.17-2.91,8-7.46,7.77-4.87-.28-8-3.36-7.53-8.48.41-4.58,3.56-6.7,8.19-6.5C335.37,324.41,337.24,327.32,337.26,331.41Z" transform="translate(-57.26 -299.49)"/><path class="cls-3" d="M659,618.49c0-1.38,0-2.74-.11-4.08q.24-120.93-.1-241.84c-.13-43.12-31.93-73.08-76.42-73.08H132.72c-43.22,0-75.26,30.54-75.36,72.32-.19,73.27-.06,146.53,0,219.81a44.88,44.88,0,0,0,1.58,12,78.39,78.39,0,0,0-1.28,14.09q-.27,109.9,0,219.82c0,11.84,4,21.94,12.88,30.49q49.84,47.88,99.15,96.24c9.31,9.19,20.21,13.27,33,13.27,126.8.07,253.58.31,380.37-.1,44.41-.15,76-30.75,76.09-72.86Q659.37,761.54,659,618.49Zm-75.88,342.4L203.66,961c-9.73,0-17.12-2.94-23.9-9.6q-47.41-46.51-95.37-92.51c-6.9-6.6-9.84-13.75-9.81-23.2.27-69.2.16-138.4.17-207.61h-.23v-1.85l.23.22V595.4c-.11-.71-.17-1.44-.23-2.17V570.78a.71.71,0,0,0-.1.14c.18-66.1.09-132.18.1-198.27,0-34.21,23.88-57.15,59.39-57.15H582.57c35.31,0,59,23.15,59,57.55V642.77h0v63.56l.21-.25V904.19C641.83,937.9,618.11,960.88,583.08,960.89Z" transform="translate(-57.26 -299.49)"/><path class="cls-1" d="M583,311.08H132.74c-35.74,0-58.39,28-58.4,61.75V748.67q0,46.47-.16,92.94c0,9.33,2.92,16.41,9.85,22.94Q132.3,909.93,180,956c6.83,6.59,14.26,9.51,24.05,9.49q190.87-.29,381.75-.14c35.22,0,59.09-22.72,59.1-56.1V753.12l0-313.74V373.23C644.9,339.22,618.5,311.08,583,311.08ZM386,324.43h0c3.92-.09,6.55,1.68,6.75,5.38.22,4-2.44,6.22-6.59,6.8-3.77-.49-6.16-2.32-6.14-6.12S381.81,324.5,386,324.43Zm-59.5,5.21c.35-3.68,3-5.38,6.91-5.22,4.17.17,5.74,2.51,5.77,5.8-.28,4.15-2.46,6.44-6.3,6.24-4.09-.23-6.75-2.72-6.36-6.83Zm289.59,79.11v35.5l-4,183-1,173.5,7.2,66.39c-18.2,16.8-18.54,42.93-14.74,31.93-23.8,17.5-74.92,24.64-109,24.65h-323c-34.17,0-60.76-47.92-60.76-80.64V403.75c0-7.14-2.16-44.29,34.33-48,47.57-4.84,390.38-8.64,439.33,11C618.27,380.33,616.06,401.42,616.07,408.75Z" transform="translate(-57.26 -299.49)"/><path class="cls-3" d="M618.33,502V412.25c0-35-28.32-59.41-68.83-59.43q-191.53-.12-383.08,0c-40.53,0-68.73,24.49-68.75,59.45V872.18c0,21.3,10.91,38.78,28.69,49,3.15-3.61,6.26-7.23,9.29-10.91a48.12,48.12,0,0,1-9.75-8.09c-9.88-8.39-12.3-19.18-12.69-30.41-.14-4.24,0-8.58.21-12.88H113V499.53c-.34-16.36.33-32.73.16-49.1-.15-14.74-.2-29.52.85-44.22,1.52-21.29,21.42-39.38,46.18-39.85,43.12-.84,86.28,0,129.41.13l52.49-.07H365.3l71.89-.05,42.35.07,16.73-.06c19.33-.11,38.67-.77,58-.2,26.74.77,47.8,20.18,47.82,43.36q.09,46.24.1,92.46h.41V858.93h-.48v14c0,26.26-21.61,45-52.39,45q-93.87.22-187.75,0-95.44-.07-190.88-.31c-5.72.3-11.51,1.14-16.93-1.36a41.41,41.41,0,0,1-18.49-6.07c-3,3.68-6.14,7.3-9.29,10.91,10.91,6.27,24.4,9.81,39.54,9.82H550c39.82,0,68.23-24.45,68.23-58.85V858.93h-.36V502Z" transform="translate(-57.26 -299.49)"/><path class="cls-1" d="M448.19,1008.5" transform="translate(-57.26 -299.49)"/><path class="cls-4" d="M614.35,385.56" transform="translate(-57.26 -299.49)"/></svg>