<svg id="Layer_1" data-name="Layer 1" xmlns="http://www.w3.org/2000/svg" viewBox="0 0 563.7 601.7"><defs><style>.cls-1{fill:#d8fcfb;}.cls-2{fill:#fdfdfd;}</style></defs><title>tela-direita</title><g id="visor_2" data-name="visor 2"><path class="cls-1" d="M1459.4,392.8h0c-.1-4.7-.1-9.3-.1-14,0-25.8-23.9-47.4-54.2-48.3-13.3-.4-26.6-.3-39.9-.1v-.3H1011.9v.2c-17.9,0-35.8.1-53.7.4-28.1.5-50.7,20.7-52.4,44.4-.4,5.9-.7,11.8-.8,17.7h-1.8V826.9h2.9c-.1,17.4-.1,34.8,1,52.2,1.6,26.7,24,49.3,51.7,49.9l17.7.3v1.3h400.4l29-.3c28-.5,50.5-20.6,52.2-44.2,1.2-17.3,1.1-34.7,1-52.1v-7h.3Z" transform="translate(-895.7 -328.9)"/><polygon class="cls-2" points="274.1 0.3 17.8 256.6 19.4 275.5 294.9 0 274.1 0.3"/><polygon class="cls-2" points="0.13 414.31 413.24 1.2 436.3 1.2 10.38 424.56 0.13 414.31"/><polygon class="cls-2" points="313.2 0 0 313.2 17.9 362.9 390.5 0 313.2 0"/><path class="cls-2" d="M1354.33,296.67" transform="translate(-895.7 -328.9)"/></g></svg>