<svg id="Layer_1" data-name="Layer 1" xmlns="http://www.w3.org/2000/svg" viewBox="0 0 562 600.5"><defs><style>.cls-1{fill:#d8fcfb;}.cls-2{fill:#fdfdfd;}</style></defs><title>tela esquerda</title><g id="visor"><path class="cls-1" d="M639.8,392.8h0c-.1-4.7-.1-9.3-.1-14,0-25.8-23.9-47.4-54.2-48.3-13.3-.4-26.6-.3-39.9-.1v-.3H192.2v.2c-17.9,0-35.8.1-53.7.4-28.1.5-50.7,20.7-52.4,44.4-.4,5.9-.7,11.8-.8,17.7H83.5V826.9h2.9c-.1,17.4-.1,34.8,1,52.2,1.6,26.7,24,49.3,51.7,49.9l17.7.3v1.3H557.2l29-.3c28-.5,50.5-20.6,52.2-44.2,1.2-17.3,1.1-34.7,1-52.1v-7h.3l.1-434.2Z" transform="translate(-77.8 -330.1)"/><rect class="cls-2" x="52.19" y="482.98" width="357.1" height="14.5" transform="translate(-356.86 -23.36) rotate(-45)"/><rect class="cls-2" x="-6.39" y="554.8" width="610.89" height="14.5" transform="translate(-387.64 45.98) rotate(-45)"/><polygon class="cls-2" points="330.5 11.2 0 341.7 36.4 378.1 380.1 36.3 330.5 11.2"/></g></svg>