<svg id="Layer_1" data-name="Layer 1" xmlns="http://www.w3.org/2000/svg" viewBox="0 0 967.34 81.32"><defs><style>.cls-1{fill:#333232;}</style></defs><title>witpk</title><path class="cls-1" d="M702.22,22.29c-7.27,7.25-15.41,15.3-15,23.92S695.11,63,699.55,71.58c-11.82,4.57-18.28-.18-22.35-10.68-1.26-3.27-2.57-8.88-7-7.73-4.63,1.19-2.18,6.65-2.22,10.14-.06,5.8.29,10.08-8.11,10-8.77,0-7.66-5-7.63-10.44.07-11.9.33-23.81-.1-35.69-.24-6.36,1.51-8.66,8.25-8.58,6.21.07,7.81,2,7.64,7.93-.12,4.18-2.71,11,1.83,12.23,6,1.55,7-6.15,8.69-10.17,3.6-8.69,9.49-10.3,18-9.89,13.93.68,27.92.15,41.88.14,3.81,0,7.55-.68,7.52,5.5,0,5.54-1.86,7.57-7.32,7.21-5-.33-10-.05-15-.05-2.87,0-5.35.36-5.55,4.11-.22,4.16,2.59,4,5.34,4,3.45,0,6.93.24,10.36-.05,4.54-.37,5.95,1.45,5.93,5.92,0,4.66-1,7.34-6.35,6.84-3.42-.32-6.9,0-10.35,0-3.23,0-5.07,1.14-4.93,4.69.13,3.31,2.43,3.36,4.76,3.38,5.37.05,10.75.18,16.11,0,4.46-.17,7.11.54,7,6.13-.14,5-1.85,7.07-6.74,6.56-.38,0-.77,0-1.15,0-11.45-.53-25.9,4.58-33.53-1.88C697.25,65,703,50.28,702.29,39.35,701.92,33.68,702.22,28,702.22,22.29Z" transform="translate(-16.17 -4.74)"/><path class="cls-1" d="M377,61c8.43,0,16.87,0,25.3,0,2.36,0,4.63-.43,4.72-3.65s-2.19-3.49-4.58-3.52c-3.07,0-6.15.11-9.21-.1-13.64-.93-17.87-5.5-17.54-18.7.29-11.31,4.86-15.56,17.75-16.07,6.13-.24,12.29.15,18.43-.1,4.57-.19,7,.7,6.86,6.18-.11,5.11-1.94,6.8-6.78,6.58a141,141,0,0,0-15,.09c-2.59.16-5.75.61-5.7,4.26.05,3.84,3.14,3.67,5.85,3.7s5.38-.05,8.06,0c13.1.35,17.67,4.78,17.76,17.14.08,12.67-4.16,17.08-17.52,17.05-22.22-.06-44.44-.67-66.65-.69-5.72,0-8.28-1.32-8.06-7.66.43-13,.31-26.12,0-39.17-.11-5.12.9-7.79,6.84-7.55,10,.4,20,.25,29.95.05,4.55-.1,6.84.85,7.08,6.21s-2,6.63-6.58,6.52c-5.76-.13-11.52,0-17.28.07-2.85,0-3.91,1.65-4,4.4-.16,3.39,2,3.58,4.4,3.6,3.84,0,7.7.26,11.52,0,4.78-.37,5.81,1.92,5.7,6.16-.11,3.89-.44,6.84-5.45,6.56-3.83-.21-7.68,0-11.52,0-3.4,0-4.76,1.72-4.64,5,.12,3.62,2.85,3,4.94,3,8.44.1,16.88,0,25.32,0Z" transform="translate(-16.17 -4.74)"/><path class="cls-1" d="M597.39,42.75c-3.65,15.41-14.57,16.74-26.91,15.62-5.64-.51-10.08.07-8.81,7.58,1.14,6.82-3.11,7.12-8.29,7.21-5.38.09-7.47-1.68-7.34-7.24.29-13.42.37-26.85,0-40.26-.18-5.87,2.11-7.15,7.37-6.88,7.27.38,14.57.15,21.85.09,11-.09,18.9,3.49,19.81,16.66,3.22-8.18,5.17-17.21,16.36-16.88,8.8.26,17.7-.36,26.37.81,6.34.86,9.35,6.24,9.41,12.72q.11,13.8,0,27.6c0,1.89,0,4.09-.94,5.61-8.89,14.89-23.44,7-35.53,8.13-8.44.77-13.19-5.1-13.28-13.88C597.35,54,597.39,48.38,597.39,42.75ZM632,47.57c0-1.73-.06-2.88,0-4,.41-7.33.64-13.15-10.27-13s-9.13,6.44-9.1,12.84a43.85,43.85,0,0,1,0,6.88c-1.36,8.69,2.27,10.93,10.8,11C635.85,61.41,630.85,52.74,632,47.57Zm-63.09-1.38c5.6.22,10.44.38,10.43-7.28,0-7.32-4.41-7.66-9.86-7.9-5.61-.25-8.43,1.07-8.33,7.55C561.22,44.64,563.22,47.16,568.89,46.19Z" transform="translate(-16.17 -4.74)"/><path class="cls-1" d="M217.82,51.79c-13.87,15.46-15.48,15.46-27.4.89-2.25,3.52-1.29,7.41-1.06,11,.43,6.46-.74,9.75-8.52,9.67s-7.4-4.27-7.33-9.55c.15-11.9-.15-23.81.18-35.7.08-3.19-2.66-8.71,3.59-9,5.24-.21,11.54-2.67,14.9,4.8,3,6.6,6.82,12.79,10.61,19.75,5.81-5,8.37-11.54,10.87-17.62,3.38-8.23,9.63-7.9,16-7,7.48,1.1,3.53,7.45,3.71,11.21.58,11.87-.16,23.8.35,35.68.3,6.94-3.33,7.16-8.49,7.21s-8.06-1-7.5-7C218.15,61.75,217.82,57.27,217.82,51.79Z" transform="translate(-16.17 -4.74)"/><path class="cls-1" d="M793.61,52.7c-10.12,14-17.75,15.47-28.93-3.16,0,6.8-.21,10.68.05,14.52.37,5.55.06,9.38-7.53,9.23-6.8-.14-8.45-2.6-8.26-8.83.38-12.24-.05-24.51.22-36.76.08-3.22-2.34-8.71,4.06-8.64,4.87.05,10.77-2.72,14,4.24s7.27,13.36,11.79,21.53c3.87-7,7.83-12.48,10.11-18.62,3.08-8.27,9.36-8.12,15.8-7.18,7.57,1.1,3.45,7.44,3.64,11.15.61,11.84-.12,23.74.36,35.59.27,6.61-2.79,7.37-8.21,7.41s-7.69-1.65-7.22-7.21C793.9,61.57,793.61,57.13,793.61,52.7Z" transform="translate(-16.17 -4.74)"/><path class="cls-1" d="M65.94,49c-.94,7.32,3.71,19-9.37,24.54-.63.27-1,2-.89,3,.55,4.44,1,8.47-5.24,9.2-6.06.7-12.2.49-15.23-5.22-2.39-4.49-5-6.88-9.92-7.75-6.24-1.09-8.84-5.82-9-11.67-.25-9.93-.08-19.88,0-29.83a7.8,7.8,0,0,1,.57-3.38C25.28,11.32,40.54,20.45,52.76,19c8.54-1,13,5.26,13.16,13.88C66,37.49,65.94,42.08,65.94,49ZM50.69,47.45c0-1.8,0-3,0-4.1.14-6.57,1.27-12.52-9.3-12.76-11.13-.26-10.38,5.88-10.08,13a35.12,35.12,0,0,1,0,6.88c-1.44,9,2.75,10.73,11,10.78C54.91,61.36,49.33,52.39,50.69,47.45Z" transform="translate(-16.17 -4.74)"/><path class="cls-1" d="M900.6,41.29c0-4.46.19-8.94-.05-13.4-.31-5.49-.17-9.22,7.5-9.31s8.75,3,8.52,9.52c-.43,11.9,0,23.83-.22,35.73-.07,3.32,2.29,8.74-3.84,9-4.94.19-10.91,2.65-14.43-3.8s-7.4-12.91-13.46-18.67c0,4.42-.29,8.87.07,13.26.53,6.29-.32,9.88-8.34,9.74-7.84-.15-7.4-4.33-7.34-9.6.14-11.91-.15-23.83.16-35.74.09-3.22-2.51-8.77,3.77-8.89,4.87-.09,10.82-2.79,14.25,4,3.26,6.45,7.19,12.56,10.83,18.82Z" transform="translate(-16.17 -4.74)"/><path class="cls-1" d="M864.19,46c0,27.3-.68,28-28.58,27.91-18.58,0-21.4-2.8-21.55-21.12V49.33c0-31,0-31,31.44-30.71,14.75.16,18.32,3.62,18.67,18.17C864.25,39.85,864.18,42.92,864.19,46Zm-15.38,1c0-1.34,0-2.1,0-2.87,0-6.79,1.74-13.48-9.69-13.52s-9.74,6.63-9.68,13.42a46.43,46.43,0,0,1,0,6.88C828.24,59,831.74,61,839.63,61.3,852.87,61.79,847.68,52.49,848.81,47Z" transform="translate(-16.17 -4.74)"/><path class="cls-1" d="M71.61,42.09c0-4.61.24-9.24,0-13.83-.38-6-.08-9.83,8.14-9.72,7.89.11,7.47,4.07,7.36,9.35-.17,8.84.24,17.69-.13,26.51-.3,7.33,4.46,6.54,9.13,6.66,5,.14,9.11,0,8.76-7-.45-9.2.27-18.46-.24-27.65-.34-6.33,2.17-7.73,8-7.66,5.52.07,8.49.88,8.16,7.47-.54,10.73,0,21.51-.28,32.26-.22,10.21-5.58,15-15.93,15.55C73.23,75.53,71.61,74.12,71.61,42.09Z" transform="translate(-16.17 -4.74)"/><path class="cls-1" d="M451.62,18.88c3.85,0,7.7.17,11.53,0,4.28-.22,5.15,2.07,5,5.7s.24,7.13-5.07,7-10.77-.09-16.15.07c-2.73.08-5.63.57-5.77,4.15-.16,4,2.87,3.85,5.62,3.87s5.38-.06,8.07,0C468,40,472.37,44.33,472.36,57c0,12.78-4.06,16.87-17.59,16.88-7.66,0-15.33-1-23-1.08-5.28-.06-6.13-2.65-6.22-7.23-.11-5.37,3-5.27,6.67-5.14,6.53.24,13,.48,19.58.58,2.92,0,5.45-.76,5-4.52-.43-3.37-3.25-2.41-5.28-2.62s-3.84,0-5.76-.06c-16-.5-20.86-4.75-20.59-18.12.26-12.57,5.17-16.54,20.71-16.76C447.78,18.85,449.7,18.88,451.62,18.88Z" transform="translate(-16.17 -4.74)"/><path class="cls-1" d="M296.46,5.72c.37,5-5.31,7.34-5.31,13.16,3,0,6,.23,8.87-.05,4.77-.46,5.82,1.87,5.71,6.11-.09,3.9-.39,6.83-5.43,6.61s-10-.12-15,0c-3.25.08-7.43-1-7.3,4.59.13,5.33,4.27,3.09,6.81,3.4a45.71,45.71,0,0,0,9.21,0c4.74-.39,5.85,2,5.78,6.2-.07,4-.8,6.76-5.65,6.52-3.83-.19-7.68,0-11.53,0-3.37,0-4.76,1.63-4.66,5,.11,3.65,2.82,3,4.9,3.05,5.38.14,10.77.28,16.14,0,4.74-.26,6.87,1,6.79,6.33s-2.14,6.55-6.87,6.44c-10-.21-20-.24-30,0-5,.13-6.71-1.85-6.63-6.75q.32-20.74,0-41.49c-.06-4.43,1.41-6.61,5.9-5.95,6.74,1,10.31-1.44,12.24-8.36C282.34,3.84,283.14,4.07,296.46,5.72Z" transform="translate(-16.17 -4.74)"/><path class="cls-1" d="M922.62,38.39v-7.6c0-12.55,1.66-13.16,13.67-11.8,9.83,1.11,19.94,0,29.91-.41,8.72-.36,15.4,2.2,16.8,11.72,1.31,8.83.72,17.81-9.71,20.55-5.64,1.48-8,8.68-14.82,7.2-3.08-.67-7.69,1.31-7.83-4.08-.1-3.76-1.9-8,4.13-10.4,4.61-1.81,14.18-.83,12.15-8.8-2.06-8.12-10.44-2.27-15.91-3.16-10.58-1.71-15.16,2.87-13.35,13.59a14.27,14.27,0,0,1-.22,3.43c-.38,4.49.47,9.38-6.79,9.49-6.88.11-7.2-4-7.37-8.92C923.14,45,922.77,40.77,922.62,38.39Z" transform="translate(-16.17 -4.74)"/><path class="cls-1" d="M476.92,45c0-26.09,0-26.09,25.92-26.09,3.45,0,6.91.13,10.35,0,4.28-.21,7.1.21,7.17,5.91.08,6-2.61,7.09-7.64,6.82s-10,0-15,0c-2.95,0-5.18.6-5.27,4.37-.11,4.38,2.95,3.6,5.44,3.69,3.07.12,6.15.17,9.21,0,4.27-.23,7.24.15,7.29,5.88,0,6-2.7,7.24-7.73,6.82a51.25,51.25,0,0,0-6.9,0c-3.27.16-7.44-.94-7.25,4.65.18,5.29,4.29,3.16,6.82,3.34a124.55,124.55,0,0,0,13.8.06c4.26-.16,7.13.18,7.19,5.9.06,6-2.61,7.23-7.64,6.82-2.67-.22-5.37,0-8.06,0C476.92,73.05,476.92,73.05,476.92,45Z" transform="translate(-16.17 -4.74)"/><path class="cls-1" d="M127,45.48c0-26.6,0-26.6,26.54-26.6,3.83,0,7.68.16,11.51,0,4.14-.21,5.26,1.84,5.05,5.56-.2,3.42.54,7.2-4.84,7.11s-10.74,0-16.11,0c-3.1,0-6.4-.32-6.68,4.19-.31,5.25,3.69,3.71,6.37,3.87a94.21,94.21,0,0,0,10.36,0c4-.19,5.49,1.54,5.25,5.47-.2,3.48.48,7.24-4.86,7.16-3.45,0-6.9,0-10.36,0-3.07,0-6.41-.41-6.75,4.1-.41,5.24,3.56,3.84,6.27,4,4.21.19,8.43.07,12.65,0,4.56,0,9.06-1.08,8.87,6.5-.2,7.74-5.15,6-9.43,6.12-8,.12-16.17-.56-24.15.19-8.57.81-10.59-2.79-9.81-10.46C127.44,57,127,51.24,127,45.48Z" transform="translate(-16.17 -4.74)"/><path class="cls-1" d="M930.32,60.23c4.75-.6,7.93-.11,7.89,6.29s-3.11,6.61-7.89,6.61-7.86-.37-7.9-6.62S925.57,59.63,930.32,60.23Z" transform="translate(-16.17 -4.74)"/><path class="cls-1" d="M958.79,72.88c-5.48.7-8.44-.14-8.53-6.35-.09-6.44,3.22-6.48,7.88-6.47s8,0,7.91,6.44C965.93,72.62,963.26,73.82,958.79,72.88Z" transform="translate(-16.17 -4.74)"/></svg>